<svg width="400" height="546" viewBox="0 0 400 546" fill="none" xmlns="http://www.w3.org/2000/svg">
<g filter="url(#filter0_d_648_1952)">
<circle cx="199.5" cy="130.5" r="114.5" fill="white"/>
<rect x="20" y="149" width="360" height="293" rx="20" fill="white"/>
</g>
<path d="M199.81 42C150.762 42 111 81.7616 111 130.81C111 179.858 150.762 219.62 199.81 219.62C248.858 219.62 288.62 179.858 288.62 130.81C288.62 81.7616 248.858 42 199.81 42Z" stroke="#252525" stroke-width="6" stroke-linecap="round" stroke-linejoin="round"/>
<path d="M134.368 188.886C134.368 188.886 153.142 148.826 199.465 148.826C245.788 148.826 264.562 188.886 264.562 188.886" stroke="#252525" stroke-width="6" stroke-linecap="round" stroke-linejoin="round"/>
<path d="M199.465 135.472C219.439 135.472 235.63 119.281 235.63 99.3075C235.63 79.3342 219.439 63.1426 199.465 63.1426C179.491 63.1426 163.3 79.3342 163.3 99.3075C163.3 119.281 179.491 135.472 199.465 135.472Z" stroke="#252525" stroke-width="6" stroke-linecap="round" stroke-linejoin="round"/>
<defs>
<filter id="filter0_d_648_1952" x="0" y="0" width="400" height="466" filterUnits="userSpaceOnUse" color-interpolation-filters="sRGB">
<feFlood flood-opacity="0" result="BackgroundImageFix"/>
<feColorMatrix in="SourceAlpha" type="matrix" values="0 0 0 0 0 0 0 0 0 0 0 0 0 0 0 0 0 0 127 0" result="hardAlpha"/>
<feOffset dy="4"/>
<feGaussianBlur stdDeviation="10"/>
<feComposite in2="hardAlpha" operator="out"/>
<feColorMatrix type="matrix" values="0 0 0 0 0 0 0 0 0 0 0 0 0 0 0 0 0 0 0.25 0"/>
<feBlend mode="normal" in2="BackgroundImageFix" result="effect1_dropShadow_648_1952"/>
<feBlend mode="normal" in="SourceGraphic" in2="effect1_dropShadow_648_1952" result="shape"/>
</filter>
</defs>
</svg>
