<svg width="36" height="36" viewBox="0 0 36 36" fill="none" xmlns="http://www.w3.org/2000/svg">
<path d="M17.81 2C9.07837 2 2 9.07837 2 17.81C2 26.5415 9.07837 33.62 17.81 33.62C26.5415 33.62 33.62 26.5415 33.62 17.81C33.62 9.07837 26.5415 2 17.81 2Z" stroke="#252525" stroke-width="3.5" stroke-linecap="round" stroke-linejoin="round"/>
<path d="M5.59045 27.8426C5.59045 27.8426 9.11453 23.3435 17.81 23.3435C26.5055 23.3435 30.0297 27.8426 30.0297 27.8426" stroke="#252525" stroke-width="3.5" stroke-linecap="round" stroke-linejoin="round"/>
<path d="M17.81 17.81C20.4296 17.81 22.553 15.6866 22.553 13.067C22.553 10.4475 20.4296 8.32401 17.81 8.32401C15.1905 8.32401 13.067 10.4475 13.067 13.067C13.067 15.6866 15.1905 17.81 17.81 17.81Z" stroke="#252525" stroke-width="3.5" stroke-linecap="round" stroke-linejoin="round"/>
</svg>
