<svg width="437" height="599" viewBox="0 0 437 599" fill="none" xmlns="http://www.w3.org/2000/svg">
<g filter="url(#filter0_d_906_3598)">
<rect x="20" y="16" width="397" height="559" rx="55" fill="#FBFBFB"/>
</g>
<path d="M359 55.2974L370 66.2973" stroke="#252525" stroke-width="3" stroke-linecap="round"/>
<path d="M359 66L370 55.0001" stroke="#252525" stroke-width="3" stroke-linecap="round"/>
<path d="M121.877 114V109.992C121.877 108.984 122.077 108.208 122.477 107.664C122.877 107.12 123.445 106.736 124.181 106.512L124.205 106.416L121.637 105.48V104.856C121.637 104.072 121.869 103.352 122.333 102.696C122.797 102.04 123.477 101.52 124.373 101.136C125.285 100.736 126.389 100.536 127.685 100.536C128.901 100.536 129.949 100.728 130.829 101.112C131.709 101.48 132.389 102.04 132.869 102.792C133.365 103.528 133.613 104.464 133.613 105.6V114H130.013V105.816C130.013 105.016 129.797 104.416 129.365 104.016C128.949 103.616 128.357 103.416 127.589 103.416C126.853 103.416 126.301 103.576 125.933 103.896C125.565 104.2 125.365 104.576 125.333 105.024L127.469 106.008L127.205 107.568C126.629 107.6 126.197 107.808 125.909 108.192C125.621 108.576 125.477 109.096 125.477 109.752V114H121.877ZM141.174 114V105.312C141.174 104.64 141.014 104.152 140.694 103.848C140.39 103.544 139.886 103.392 139.182 103.392C138.654 103.392 138.166 103.464 137.718 103.608C137.286 103.752 136.878 103.928 136.494 104.136V101.256C136.846 101.096 137.342 100.936 137.982 100.776C138.622 100.616 139.374 100.536 140.238 100.536C141.118 100.536 141.894 100.664 142.566 100.92C143.254 101.176 143.79 101.608 144.174 102.216C144.574 102.808 144.774 103.624 144.774 104.664V114H141.174ZM153.356 114.312C152.412 114.312 151.46 114.208 150.5 114C149.556 113.792 148.716 113.496 147.98 113.112L148.988 110.256C149.308 110.432 149.692 110.616 150.14 110.808C150.588 111 151.076 111.16 151.604 111.288C152.132 111.416 152.668 111.48 153.212 111.48C153.852 111.48 154.332 111.392 154.652 111.216C154.988 111.024 155.156 110.736 155.156 110.352C155.156 110.064 155.044 109.832 154.82 109.656C154.612 109.464 154.3 109.288 153.884 109.128C153.468 108.952 152.972 108.768 152.396 108.576C151.548 108.272 150.82 107.944 150.212 107.592C149.604 107.24 149.132 106.808 148.796 106.296C148.476 105.784 148.316 105.144 148.316 104.376C148.316 103.496 148.54 102.776 148.988 102.216C149.436 101.656 150.068 101.24 150.884 100.968C151.7 100.68 152.652 100.536 153.74 100.536C154.636 100.536 155.444 100.608 156.164 100.752C156.884 100.896 157.444 101.08 157.844 101.304V104.136C157.572 104.008 157.212 103.88 156.764 103.752C156.332 103.624 155.86 103.52 155.348 103.44C154.852 103.344 154.372 103.296 153.908 103.296C153.252 103.296 152.756 103.384 152.42 103.56C152.084 103.736 151.916 103.984 151.916 104.304C151.916 104.56 152.028 104.776 152.252 104.952C152.492 105.128 152.836 105.296 153.284 105.456C153.732 105.6 154.268 105.784 154.892 106.008C155.724 106.296 156.428 106.616 157.004 106.968C157.58 107.32 158.012 107.752 158.3 108.264C158.604 108.776 158.756 109.408 158.756 110.16C158.756 110.88 158.588 111.56 158.252 112.2C157.932 112.824 157.38 113.336 156.596 113.736C155.812 114.12 154.732 114.312 153.356 114.312ZM163.066 114V108.48H161.698V106.272H166.306V111.264H166.474C167.002 111.264 167.45 111.12 167.818 110.832C168.202 110.544 168.49 110.12 168.682 109.56C168.874 108.984 168.97 108.264 168.97 107.4C168.97 106.408 168.826 105.624 168.538 105.048C168.266 104.456 167.858 104.032 167.314 103.776C166.77 103.52 166.098 103.392 165.298 103.392C164.466 103.392 163.714 103.512 163.042 103.752C162.37 103.976 161.77 104.248 161.242 104.568V101.568C161.77 101.296 162.434 101.056 163.234 100.848C164.034 100.64 164.954 100.536 165.994 100.536C167.546 100.536 168.802 100.784 169.762 101.28C170.738 101.776 171.458 102.528 171.922 103.536C172.386 104.544 172.618 105.808 172.618 107.328C172.618 108.752 172.402 109.968 171.97 110.976C171.554 111.968 170.866 112.72 169.906 113.232C168.962 113.744 167.698 114 166.114 114H163.066ZM169.196 99.024C168.444 99.024 167.852 98.912 167.42 98.688C166.988 98.464 166.684 98.184 166.508 97.848C166.316 97.496 166.22 97.128 166.22 96.744C166.22 96.472 166.26 96.184 166.34 95.88C166.42 95.56 166.54 95.264 166.7 94.992L169.316 95.328C169.284 95.44 169.26 95.56 169.244 95.688C169.212 95.8 169.196 95.904 169.196 96C169.196 96.224 169.268 96.4 169.412 96.528C169.54 96.64 169.764 96.696 170.084 96.696H175.244V99.024H169.196ZM181.56 114.24C180.264 114.24 179.232 113.96 178.464 113.4C177.696 112.824 177.144 112.04 176.808 111.048C176.472 110.04 176.304 108.888 176.304 107.592C176.304 106.2 176.456 105.048 176.76 104.136C177.08 103.208 177.528 102.488 178.104 101.976C178.68 101.448 179.36 101.08 180.144 100.872C180.944 100.648 181.816 100.536 182.76 100.536C184.2 100.536 185.352 100.736 186.216 101.136C187.08 101.536 187.704 102.104 188.088 102.84C188.488 103.576 188.688 104.44 188.688 105.432V114H185.088V105.72C185.088 104.968 184.904 104.4 184.536 104.016C184.184 103.616 183.592 103.416 182.76 103.416C182.2 103.416 181.704 103.536 181.272 103.776C180.856 104 180.528 104.408 180.288 105C180.064 105.592 179.952 106.44 179.952 107.544C179.952 108.296 180.024 108.96 180.168 109.536C180.312 110.112 180.544 110.56 180.864 110.88C181.2 111.2 181.648 111.36 182.208 111.36C182.384 111.36 182.552 111.352 182.712 111.336C182.888 111.304 183.04 111.272 183.168 111.24L183.504 113.928C183.248 114.04 182.936 114.12 182.568 114.168C182.216 114.216 181.88 114.24 181.56 114.24ZM192.643 114V109.992C192.643 108.984 192.843 108.208 193.243 107.664C193.643 107.12 194.211 106.736 194.947 106.512L194.971 106.416L192.403 105.48V104.856C192.403 104.072 192.635 103.352 193.099 102.696C193.563 102.04 194.243 101.52 195.139 101.136C196.051 100.736 197.155 100.536 198.451 100.536C199.667 100.536 200.715 100.728 201.595 101.112C202.475 101.48 203.155 102.04 203.635 102.792C204.131 103.528 204.379 104.464 204.379 105.6V114H200.779V105.816C200.779 105.016 200.563 104.416 200.131 104.016C199.715 103.616 199.123 103.416 198.355 103.416C197.619 103.416 197.067 103.576 196.699 103.896C196.331 104.2 196.131 104.576 196.099 105.024L198.235 106.008L197.971 107.568C197.395 107.6 196.963 107.808 196.675 108.192C196.387 108.576 196.243 109.096 196.243 109.752V114H192.643ZM215.947 114V105.456C215.947 104.688 215.739 104.136 215.323 103.8C214.907 103.464 214.267 103.296 213.403 103.296C212.571 103.296 211.755 103.424 210.955 103.68C210.171 103.92 209.491 104.208 208.915 104.544V101.568C209.379 101.344 210.035 101.12 210.883 100.896C211.731 100.656 212.715 100.536 213.835 100.536C214.651 100.536 215.395 100.624 216.067 100.8C216.755 100.96 217.355 101.24 217.867 101.64C218.379 102.024 218.771 102.544 219.043 103.2C219.331 103.84 219.475 104.64 219.475 105.6V114H215.947ZM212.011 114.24C210.635 114.24 209.571 113.912 208.819 113.256C208.083 112.6 207.715 111.68 207.715 110.496C207.715 109.216 208.171 108.192 209.083 107.424C210.011 106.656 211.467 106.192 213.451 106.032L216.523 105.792V108.384L213.859 108.648C212.899 108.744 212.227 108.936 211.843 109.224C211.475 109.512 211.291 109.896 211.291 110.376C211.291 110.856 211.443 111.216 211.747 111.456C212.067 111.696 212.475 111.816 212.971 111.816C213.163 111.816 213.355 111.8 213.547 111.768C213.739 111.72 213.915 111.672 214.075 111.624L214.387 113.88C214.083 113.992 213.723 114.08 213.307 114.144C212.891 114.208 212.459 114.24 212.011 114.24ZM217.133 120.264V118.128C217.133 117.728 216.957 117.528 216.605 117.528C216.525 117.528 216.445 117.536 216.365 117.552C216.285 117.568 216.205 117.592 216.125 117.624L215.957 115.896C216.181 115.816 216.493 115.736 216.893 115.656C217.277 115.576 217.669 115.536 218.069 115.536C218.853 115.536 219.405 115.688 219.725 115.992C220.045 116.312 220.205 116.744 220.205 117.288V120.264H217.133ZM217.235 99.024V93.576H220.547V99.024H217.235ZM232.739 114.24C231.603 114.24 230.683 114.024 229.979 113.592C229.291 113.16 228.803 112.608 228.515 111.936H228.323L227.939 114H225.203V100.848H228.803V107.136C228.803 108.048 228.907 108.8 229.115 109.392C229.323 109.968 229.627 110.4 230.027 110.688C230.427 110.976 230.907 111.12 231.467 111.12C232.139 111.12 232.651 110.92 233.003 110.52C233.355 110.12 233.531 109.48 233.531 108.6V100.848H237.131V109.392C237.131 110.432 236.963 111.312 236.627 112.032C236.307 112.752 235.819 113.304 235.163 113.688C234.507 114.056 233.699 114.24 232.739 114.24ZM241.438 114V100.848H244.99V105.768H245.086L249.166 100.848H253.126V100.968L244.99 109.992V114H241.438ZM249.478 114V109.656C249.478 108.808 249.23 108.2 248.734 107.832C248.254 107.448 247.55 107.256 246.622 107.256L248.734 104.76C249.694 104.76 250.494 104.952 251.134 105.336C251.774 105.72 252.254 106.24 252.574 106.896C252.91 107.536 253.078 108.272 253.078 109.104V114H249.478ZM261.36 114.24C260.384 114.24 259.56 114.056 258.888 113.688C258.232 113.304 257.728 112.736 257.376 111.984C257.04 111.232 256.872 110.312 256.872 109.224V100.848H260.472V108.6C260.472 109.48 260.648 110.12 261 110.52C261.352 110.92 261.864 111.12 262.536 111.12C263.384 111.12 264.04 110.8 264.504 110.16C264.968 109.504 265.2 108.496 265.2 107.136V100.848H268.8V114H266.064L265.68 111.984H265.464C265.192 112.624 264.72 113.16 264.048 113.592C263.392 114.024 262.496 114.24 261.36 114.24ZM266.027 99.024C265.275 99.024 264.683 98.912 264.251 98.688C263.819 98.464 263.515 98.184 263.339 97.848C263.147 97.496 263.051 97.128 263.051 96.744C263.051 96.472 263.091 96.184 263.171 95.88C263.251 95.56 263.371 95.264 263.531 94.992L266.147 95.328C266.115 95.44 266.091 95.56 266.075 95.688C266.043 95.8 266.027 95.904 266.027 96C266.027 96.224 266.099 96.4 266.243 96.528C266.371 96.64 266.595 96.696 266.915 96.696H272.075V99.024H266.027ZM276.083 114L272.267 100.848H275.891L278.795 111.096H278.939C279.195 111.096 279.435 111.024 279.659 110.88C279.883 110.736 280.075 110.544 280.235 110.304C280.555 109.856 280.795 109.328 280.955 108.72C281.115 108.096 281.195 107.48 281.195 106.872C281.195 105.8 280.987 104.976 280.571 104.4C280.171 103.824 279.611 103.536 278.891 103.536C278.747 103.536 278.611 103.544 278.483 103.56C278.371 103.576 278.267 103.608 278.171 103.656L277.499 100.896C277.867 100.784 278.211 100.72 278.531 100.704C278.867 100.672 279.139 100.656 279.347 100.656C280.195 100.656 280.931 100.768 281.555 100.992C282.179 101.216 282.715 101.552 283.163 102C283.723 102.544 284.139 103.224 284.411 104.04C284.699 104.856 284.843 105.776 284.843 106.8C284.843 108.096 284.635 109.232 284.219 110.208C283.819 111.168 283.331 111.928 282.755 112.488C282.275 112.952 281.667 113.32 280.931 113.592C280.211 113.864 279.219 114 277.955 114H276.083ZM295.746 114V105.456C295.746 104.688 295.538 104.136 295.122 103.8C294.706 103.464 294.066 103.296 293.202 103.296C292.37 103.296 291.554 103.424 290.754 103.68C289.97 103.92 289.29 104.208 288.714 104.544V101.568C289.178 101.344 289.834 101.12 290.682 100.896C291.53 100.656 292.506 100.536 293.61 100.536C294.458 100.536 295.218 100.64 295.89 100.848C296.578 101.056 297.074 101.464 297.378 102.072C298.05 102.28 298.53 102.688 298.818 103.296C299.122 103.888 299.274 104.656 299.274 105.6V114H295.746ZM291.81 114.24C290.434 114.24 289.37 113.912 288.618 113.256C287.882 112.6 287.514 111.68 287.514 110.496C287.514 109.216 287.97 108.192 288.882 107.424C289.81 106.656 291.266 106.192 293.25 106.032L296.322 105.792V108.384L293.658 108.648C292.698 108.744 292.026 108.936 291.642 109.224C291.274 109.512 291.09 109.896 291.09 110.376C291.09 110.856 291.242 111.216 291.546 111.456C291.866 111.696 292.274 111.816 292.77 111.816C292.962 111.816 293.154 111.8 293.346 111.768C293.538 111.72 293.714 111.672 293.874 111.624L294.186 113.88C293.882 113.992 293.522 114.08 293.106 114.144C292.69 114.208 292.258 114.24 291.81 114.24ZM297.306 103.464L295.338 101.808C295.898 101.616 296.338 101.376 296.658 101.088C296.978 100.784 297.146 100.416 297.162 99.984H300.306C300.306 100.48 300.202 100.96 299.994 101.424C299.802 101.872 299.482 102.272 299.034 102.624C298.602 102.976 298.026 103.256 297.306 103.464ZM289.036 99.024V97.512L291.46 96.504H300.028V99.024H289.036ZM294.076 97.56V94.848H296.356V97.56H294.076ZM297.772 97.56V94.848H300.028V97.56H297.772ZM309.368 114.312C307.416 114.312 305.968 113.84 305.024 112.896C304.08 111.936 303.608 110.52 303.608 108.648C303.608 108.328 303.616 107.944 303.632 107.496C303.664 107.032 303.704 106.624 303.752 106.272H309.512V108.552H307.136V108.888C307.136 109.528 307.216 110.056 307.376 110.472C307.536 110.872 307.776 111.168 308.096 111.36C308.432 111.552 308.848 111.648 309.344 111.648C309.888 111.648 310.344 111.528 310.712 111.288C311.096 111.048 311.384 110.64 311.576 110.064C311.784 109.488 311.888 108.696 311.888 107.688C311.888 106.744 311.776 105.96 311.552 105.336C311.344 104.696 310.984 104.216 310.472 103.896C309.976 103.576 309.288 103.416 308.408 103.416C307.928 103.416 307.432 103.472 306.92 103.584C306.408 103.68 305.92 103.808 305.456 103.968C305.008 104.128 304.616 104.304 304.28 104.496V101.496C304.632 101.304 305.064 101.136 305.576 100.992C306.104 100.848 306.672 100.736 307.28 100.656C307.888 100.576 308.488 100.536 309.08 100.536C310.632 100.536 311.88 100.824 312.824 101.4C313.784 101.96 314.48 102.76 314.912 103.8C315.36 104.84 315.584 106.072 315.584 107.496C315.584 108.952 315.368 110.192 314.936 111.216C314.52 112.224 313.856 112.992 312.944 113.52C312.032 114.048 310.84 114.312 309.368 114.312Z" fill="#252525"/>
<path d="M140.642 170V162.88C140.642 162.24 140.469 161.78 140.122 161.5C139.776 161.22 139.242 161.08 138.522 161.08C137.829 161.08 137.149 161.187 136.482 161.4C135.829 161.6 135.262 161.84 134.782 162.12V159.64C135.169 159.453 135.716 159.267 136.422 159.08C137.129 158.88 137.942 158.78 138.862 158.78C139.569 158.78 140.202 158.867 140.762 159.04C141.336 159.213 141.749 159.553 142.002 160.06C142.562 160.233 142.962 160.573 143.202 161.08C143.456 161.573 143.582 162.213 143.582 163V170H140.642ZM137.362 170.2C136.216 170.2 135.329 169.927 134.702 169.38C134.089 168.833 133.782 168.067 133.782 167.08C133.782 166.013 134.162 165.16 134.922 164.52C135.696 163.88 136.909 163.493 138.562 163.36L141.122 163.16V165.32L138.902 165.54C138.102 165.62 137.542 165.78 137.222 166.02C136.916 166.26 136.762 166.58 136.762 166.98C136.762 167.38 136.889 167.68 137.142 167.88C137.409 168.08 137.749 168.18 138.162 168.18C138.322 168.18 138.482 168.167 138.642 168.14C138.802 168.1 138.949 168.06 139.082 168.02L139.342 169.9C139.089 169.993 138.789 170.067 138.442 170.12C138.096 170.173 137.736 170.2 137.362 170.2ZM141.942 161.22L140.302 159.84C140.769 159.68 141.136 159.48 141.402 159.24C141.669 158.987 141.809 158.68 141.822 158.32H144.442C144.442 158.733 144.356 159.133 144.182 159.52C144.022 159.893 143.756 160.227 143.382 160.52C143.022 160.813 142.542 161.047 141.942 161.22ZM142.15 157.96C141.39 157.96 140.784 157.787 140.33 157.44C139.877 157.093 139.65 156.607 139.65 155.98C139.65 155.353 139.877 154.867 140.33 154.52C140.784 154.173 141.39 154 142.15 154C142.91 154 143.524 154.173 143.99 154.52C144.444 154.867 144.67 155.353 144.67 155.98C144.67 156.607 144.444 157.093 143.99 157.44C143.524 157.787 142.91 157.96 142.15 157.96ZM142.15 156.8C142.444 156.8 142.67 156.727 142.83 156.58C142.99 156.433 143.07 156.233 143.07 155.98C143.07 155.727 142.99 155.527 142.83 155.38C142.67 155.233 142.444 155.16 142.15 155.16C141.87 155.16 141.65 155.233 141.49 155.38C141.33 155.527 141.25 155.727 141.25 155.98C141.25 156.233 141.33 156.433 141.49 156.58C141.65 156.727 141.87 156.8 142.15 156.8ZM150.534 170V162.76C150.534 162.2 150.4 161.793 150.134 161.54C149.88 161.287 149.46 161.16 148.874 161.16C148.434 161.16 148.027 161.22 147.654 161.34C147.294 161.46 146.954 161.607 146.634 161.78V159.38C146.927 159.247 147.34 159.113 147.874 158.98C148.407 158.847 149.034 158.78 149.754 158.78C150.487 158.78 151.134 158.887 151.694 159.1C152.267 159.313 152.714 159.673 153.034 160.18C153.367 160.673 153.534 161.353 153.534 162.22V170H150.534ZM157.105 170V159.04H160.065V163.14H160.145L163.545 159.04H166.845V159.14L160.065 166.66V170H157.105ZM163.805 170V166.38C163.805 165.673 163.598 165.167 163.185 164.86C162.785 164.54 162.198 164.38 161.425 164.38L163.185 162.3C163.985 162.3 164.652 162.46 165.185 162.78C165.718 163.1 166.118 163.533 166.385 164.08C166.665 164.613 166.805 165.227 166.805 165.92V170H163.805ZM173.726 170.26C172.94 170.26 172.146 170.173 171.346 170C170.56 169.827 169.86 169.58 169.246 169.26L170.086 166.88C170.353 167.027 170.673 167.18 171.046 167.34C171.42 167.5 171.826 167.633 172.266 167.74C172.706 167.847 173.153 167.9 173.606 167.9C174.14 167.9 174.54 167.827 174.806 167.68C175.086 167.52 175.226 167.28 175.226 166.96C175.226 166.72 175.133 166.527 174.946 166.38C174.773 166.22 174.513 166.073 174.166 165.94C173.82 165.793 173.406 165.64 172.926 165.48C172.22 165.227 171.613 164.953 171.106 164.66C170.6 164.367 170.206 164.007 169.926 163.58C169.66 163.153 169.526 162.62 169.526 161.98C169.526 161.247 169.713 160.647 170.086 160.18C170.46 159.713 170.986 159.367 171.666 159.14C172.346 158.9 173.14 158.78 174.046 158.78C174.793 158.78 175.466 158.84 176.066 158.96C176.666 159.08 177.133 159.233 177.466 159.42V161.78C177.24 161.673 176.94 161.567 176.566 161.46C176.206 161.353 175.813 161.267 175.386 161.2C174.973 161.12 174.573 161.08 174.186 161.08C173.64 161.08 173.226 161.153 172.946 161.3C172.666 161.447 172.526 161.653 172.526 161.92C172.526 162.133 172.62 162.313 172.806 162.46C173.006 162.607 173.293 162.747 173.666 162.88C174.04 163 174.486 163.153 175.006 163.34C175.7 163.58 176.286 163.847 176.766 164.14C177.246 164.433 177.606 164.793 177.846 165.22C178.1 165.647 178.226 166.173 178.226 166.8C178.226 167.4 178.086 167.967 177.806 168.5C177.54 169.02 177.08 169.447 176.426 169.78C175.773 170.1 174.873 170.26 173.726 170.26ZM175.252 157.52C174.626 157.52 174.132 157.427 173.772 157.24C173.412 157.053 173.159 156.82 173.012 156.54C172.852 156.247 172.772 155.94 172.772 155.62C172.772 155.393 172.806 155.153 172.872 154.9C172.939 154.633 173.039 154.387 173.172 154.16L175.352 154.44C175.326 154.533 175.306 154.633 175.292 154.74C175.266 154.833 175.252 154.92 175.252 155C175.252 155.187 175.312 155.333 175.432 155.44C175.539 155.533 175.726 155.58 175.992 155.58H180.292V157.52H175.252ZM186.458 170.26C184.725 170.26 183.465 169.86 182.678 169.06C181.905 168.247 181.518 167.073 181.518 165.54V159.04H184.518V165.7C184.518 166.407 184.671 166.947 184.978 167.32C185.298 167.68 185.791 167.86 186.458 167.86C187.125 167.86 187.611 167.68 187.918 167.32C188.238 166.947 188.398 166.407 188.398 165.7V159.04H191.398V165.54C191.398 167.073 191.005 168.247 190.218 169.06C189.445 169.86 188.191 170.26 186.458 170.26ZM194.974 170V159.04H197.934V163.14H198.014L201.414 159.04H204.714V159.14L197.934 166.66V170H194.974ZM201.674 170V166.38C201.674 165.673 201.467 165.167 201.054 164.86C200.654 164.54 200.067 164.38 199.294 164.38L201.054 162.3C201.854 162.3 202.52 162.46 203.054 162.78C203.587 163.1 203.987 163.533 204.254 164.08C204.534 164.613 204.674 165.227 204.674 165.92V170H201.674ZM211.575 170.2C210.762 170.2 210.075 170.047 209.515 169.74C208.968 169.42 208.548 168.947 208.255 168.32C207.975 167.693 207.835 166.927 207.835 166.02V159.04H210.835V165.5C210.835 166.233 210.982 166.767 211.275 167.1C211.568 167.433 211.995 167.6 212.555 167.6C213.262 167.6 213.808 167.333 214.195 166.8C214.582 166.253 214.775 165.413 214.775 164.28V159.04H217.775V170H215.495L215.175 168.32H214.995C214.768 168.853 214.375 169.3 213.815 169.66C213.268 170.02 212.522 170.2 211.575 170.2ZM215.465 157.52C214.838 157.52 214.345 157.427 213.985 157.24C213.625 157.053 213.372 156.82 213.225 156.54C213.065 156.247 212.985 155.94 212.985 155.62C212.985 155.393 213.018 155.153 213.085 154.9C213.152 154.633 213.252 154.387 213.385 154.16L215.565 154.44C215.538 154.533 215.518 154.633 215.505 154.74C215.478 154.833 215.465 154.92 215.465 155C215.465 155.187 215.525 155.333 215.645 155.44C215.752 155.533 215.938 155.58 216.205 155.58H220.505V157.52H215.465ZM223.845 170L220.665 159.04H223.685L226.105 167.58H226.225C226.438 167.58 226.638 167.52 226.825 167.4C227.012 167.28 227.172 167.12 227.305 166.92C227.572 166.547 227.772 166.107 227.905 165.6C228.038 165.08 228.105 164.567 228.105 164.06C228.105 163.167 227.932 162.48 227.585 162C227.252 161.52 226.785 161.28 226.185 161.28C226.065 161.28 225.952 161.287 225.845 161.3C225.752 161.313 225.665 161.34 225.585 161.38L225.025 159.08C225.332 158.987 225.618 158.933 225.885 158.92C226.165 158.893 226.392 158.88 226.565 158.88C227.272 158.88 227.885 158.973 228.405 159.16C228.925 159.347 229.372 159.627 229.745 160C230.212 160.453 230.558 161.02 230.785 161.7C231.025 162.38 231.145 163.147 231.145 164C231.145 165.08 230.972 166.027 230.625 166.84C230.292 167.64 229.885 168.273 229.405 168.74C229.005 169.127 228.498 169.433 227.885 169.66C227.285 169.887 226.458 170 225.405 170H223.845ZM240.231 170V162.88C240.231 162.24 240.057 161.78 239.711 161.5C239.364 161.22 238.831 161.08 238.111 161.08C237.417 161.08 236.737 161.187 236.071 161.4C235.417 161.6 234.851 161.84 234.371 162.12V159.64C234.757 159.453 235.304 159.267 236.011 159.08C236.717 158.88 237.531 158.78 238.451 158.78C239.157 158.78 239.791 158.867 240.351 159.04C240.924 159.213 241.337 159.553 241.591 160.06C242.151 160.233 242.551 160.573 242.791 161.08C243.044 161.573 243.171 162.213 243.171 163V170H240.231ZM236.951 170.2C235.804 170.2 234.917 169.927 234.291 169.38C233.677 168.833 233.371 168.067 233.371 167.08C233.371 166.013 233.751 165.16 234.511 164.52C235.284 163.88 236.497 163.493 238.151 163.36L240.711 163.16V165.32L238.491 165.54C237.691 165.62 237.131 165.78 236.811 166.02C236.504 166.26 236.351 166.58 236.351 166.98C236.351 167.38 236.477 167.68 236.731 167.88C236.997 168.08 237.337 168.18 237.751 168.18C237.911 168.18 238.071 168.167 238.231 168.14C238.391 168.1 238.537 168.06 238.671 168.02L238.931 169.9C238.677 169.993 238.377 170.067 238.031 170.12C237.684 170.173 237.324 170.2 236.951 170.2ZM241.531 161.22L239.891 159.84C240.357 159.68 240.724 159.48 240.991 159.24C241.257 158.987 241.397 158.68 241.411 158.32H244.031C244.031 158.733 243.944 159.133 243.771 159.52C243.611 159.893 243.344 160.227 242.971 160.52C242.611 160.813 242.131 161.047 241.531 161.22ZM234.639 157.52V156.26L236.659 155.42H243.799V157.52H234.639ZM238.839 156.3V154.04H240.739V156.3H238.839ZM241.919 156.3V154.04H243.799V156.3H241.919ZM251.582 170.26C249.955 170.26 248.749 169.867 247.962 169.08C247.175 168.28 246.782 167.1 246.782 165.54C246.782 165.273 246.789 164.953 246.802 164.58C246.829 164.193 246.862 163.853 246.902 163.56H251.702V165.46H249.722V165.74C249.722 166.273 249.789 166.713 249.922 167.06C250.055 167.393 250.255 167.64 250.522 167.8C250.802 167.96 251.149 168.04 251.562 168.04C252.015 168.04 252.395 167.94 252.702 167.74C253.022 167.54 253.262 167.2 253.422 166.72C253.595 166.24 253.682 165.58 253.682 164.74C253.682 163.953 253.589 163.3 253.402 162.78C253.229 162.247 252.929 161.847 252.502 161.58C252.089 161.313 251.515 161.18 250.782 161.18C250.382 161.18 249.969 161.227 249.542 161.32C249.115 161.4 248.709 161.507 248.322 161.64C247.949 161.773 247.622 161.92 247.342 162.08V159.58C247.635 159.42 247.995 159.28 248.422 159.16C248.862 159.04 249.335 158.947 249.842 158.88C250.349 158.813 250.849 158.78 251.342 158.78C252.635 158.78 253.675 159.02 254.462 159.5C255.262 159.967 255.842 160.633 256.202 161.5C256.575 162.367 256.762 163.393 256.762 164.58C256.762 165.793 256.582 166.827 256.222 167.68C255.875 168.52 255.322 169.16 254.562 169.6C253.802 170.04 252.809 170.26 251.582 170.26ZM260.357 161.04V157.78C260.357 156.98 260.211 156.407 259.917 156.06C259.624 155.713 259.184 155.54 258.597 155.54V154.34L260.617 153.38H265.717V155.54H262.357L262.337 155.62C262.684 155.833 262.937 156.14 263.097 156.54C263.271 156.94 263.357 157.467 263.357 158.12V161.04H260.357ZM263.137 170.2C262.537 170.2 262.031 170.107 261.617 169.92C261.204 169.733 260.891 169.453 260.677 169.08C260.464 168.693 260.357 168.213 260.357 167.64V159.04H263.357V167.28C263.357 167.533 263.411 167.72 263.517 167.84C263.637 167.96 263.817 168.02 264.057 168.02C264.164 168.02 264.277 168.007 264.397 167.98C264.517 167.953 264.631 167.92 264.737 167.88L265.017 169.8C264.764 169.933 264.477 170.033 264.157 170.1C263.837 170.167 263.497 170.2 263.137 170.2ZM268.013 170V165.4H266.873V163.56H270.713V167.72H270.853C271.293 167.72 271.667 167.6 271.973 167.36C272.293 167.12 272.533 166.767 272.693 166.3C272.853 165.82 272.933 165.22 272.933 164.5C272.933 163.673 272.813 163.02 272.573 162.54C272.347 162.047 272.007 161.693 271.553 161.48C271.1 161.267 270.54 161.16 269.873 161.16C269.18 161.16 268.553 161.26 267.993 161.46C267.433 161.647 266.933 161.873 266.493 162.14V159.64C266.933 159.413 267.487 159.213 268.153 159.04C268.82 158.867 269.587 158.78 270.453 158.78C271.747 158.78 272.793 158.987 273.593 159.4C274.407 159.813 275.007 160.44 275.393 161.28C275.78 162.12 275.973 163.173 275.973 164.44C275.973 165.627 275.793 166.64 275.433 167.48C275.087 168.307 274.513 168.933 273.713 169.36C272.927 169.787 271.873 170 270.553 170H268.013ZM279.025 170V159.04H281.225L281.625 160.76H281.785C282.012 160.213 282.405 159.76 282.965 159.4C283.525 159.027 284.252 158.84 285.145 158.84C285.999 158.84 286.705 158.993 287.265 159.3C287.825 159.593 288.245 160.047 288.525 160.66C288.819 161.26 288.965 162.02 288.965 162.94V170H285.965V163.54C285.965 162.793 285.812 162.26 285.505 161.94C285.212 161.607 284.779 161.44 284.205 161.44C283.739 161.44 283.339 161.567 283.005 161.82C282.685 162.073 282.439 162.447 282.265 162.94C282.105 163.42 282.025 164.027 282.025 164.76V170H279.025ZM296.996 170.26C295.796 170.26 294.836 170.12 294.116 169.84C293.396 169.547 292.87 169.14 292.536 168.62C292.216 168.1 292.056 167.5 292.056 166.82C292.056 166.233 292.143 165.76 292.316 165.4C292.503 165.04 292.736 164.767 293.016 164.58C293.31 164.38 293.603 164.247 293.896 164.18V164.06C293.59 163.953 293.296 163.807 293.016 163.62C292.736 163.433 292.503 163.18 292.316 162.86C292.143 162.54 292.056 162.14 292.056 161.66C292.056 161.167 292.17 160.707 292.396 160.28C292.636 159.853 293.016 159.513 293.536 159.26C294.056 158.993 294.743 158.86 295.596 158.86C296.01 158.86 296.41 158.893 296.796 158.96C297.183 159.013 297.483 159.093 297.696 159.2L297.236 161.22C297.13 161.193 296.983 161.167 296.796 161.14C296.623 161.1 296.443 161.08 296.256 161.08C295.843 161.08 295.536 161.18 295.336 161.38C295.136 161.567 295.036 161.813 295.036 162.12C295.036 162.44 295.123 162.687 295.296 162.86C295.47 163.033 295.69 163.153 295.956 163.22C296.236 163.287 296.523 163.32 296.816 163.32H297.236V165.18H296.816C296.243 165.18 295.81 165.28 295.516 165.48C295.236 165.68 295.096 166.007 295.096 166.46C295.096 166.7 295.15 166.94 295.256 167.18C295.376 167.407 295.576 167.6 295.856 167.76C296.136 167.907 296.536 167.98 297.056 167.98C297.55 167.98 297.936 167.907 298.216 167.76C298.496 167.613 298.696 167.42 298.816 167.18C298.936 166.927 298.996 166.647 298.996 166.34V159.04H301.996V166.24C301.996 167.613 301.59 168.627 300.776 169.28C299.976 169.933 298.716 170.26 296.996 170.26ZM298.854 157.96C298.747 157.773 298.661 157.533 298.594 157.24C298.514 156.947 298.474 156.653 298.474 156.36C298.474 155.987 298.547 155.647 298.694 155.34C298.827 155.033 299.074 154.793 299.434 154.62C299.781 154.433 300.261 154.34 300.874 154.34H303.774V156.36H301.854C301.601 156.36 301.407 156.407 301.274 156.5C301.127 156.58 301.054 156.733 301.054 156.96C301.054 157.053 301.067 157.153 301.094 157.26C301.121 157.353 301.161 157.453 301.214 157.56L298.854 157.96Z" fill="#252525"/>
<path d="M115 276C115 270.477 119.477 266 125 266H198V349H115V276Z" fill="#FEB800"/>
<path d="M115 349H198V432H125C119.477 432 115 427.523 115 422V349Z" fill="#7EB900"/>
<path d="M198 266H271C276.523 266 281 270.477 281 276V349H198V266Z" fill="#00A3EE"/>
<path d="M198 349H281V422C281 427.523 276.523 432 271 432H198V349Z" fill="#F14F21"/>
<path d="M198 250V447" stroke="black" stroke-width="3" stroke-linecap="round"/>
<path d="M100 349H297" stroke="black" stroke-width="3" stroke-linecap="round"/>
<path d="M145.442 236V230.4C145.442 229.323 145.73 228.501 146.306 227.936C146.882 227.36 147.8 227.072 149.058 227.072C150.328 227.072 151.245 227.36 151.81 227.936C152.386 228.501 152.674 229.323 152.674 230.4V236H151.25V230.4C151.25 229.685 151.064 229.152 150.69 228.8C150.317 228.437 149.768 228.256 149.042 228.256C148.328 228.256 147.784 228.437 147.41 228.8C147.048 229.152 146.866 229.685 146.866 230.4V232.176L146.914 232.192C147.149 231.776 147.437 231.504 147.778 231.376C148.12 231.237 148.6 231.168 149.218 231.168H149.746V232.336H149.218C148.568 232.336 148.072 232.427 147.73 232.608C147.4 232.789 147.17 233.029 147.042 233.328C146.925 233.616 146.866 233.941 146.866 234.304V236H145.442ZM157.35 236.16C156.934 236.16 156.529 236.117 156.134 236.032C155.75 235.947 155.34 235.787 154.902 235.552L155.35 234.464C155.585 234.603 155.852 234.725 156.15 234.832C156.449 234.928 156.796 234.976 157.19 234.976C157.98 234.976 158.593 234.688 159.03 234.112C159.478 233.525 159.702 232.683 159.702 231.584C159.702 230.507 159.473 229.685 159.014 229.12C158.566 228.544 157.873 228.256 156.934 228.256C156.593 228.256 156.246 228.293 155.894 228.368C155.542 228.443 155.233 228.555 154.966 228.704V227.504C155.276 227.344 155.612 227.232 155.974 227.168C156.348 227.104 156.721 227.072 157.094 227.072C158.054 227.072 158.833 227.264 159.43 227.648C160.028 228.021 160.465 228.544 160.742 229.216C161.02 229.888 161.158 230.677 161.158 231.584C161.158 232.992 160.838 234.107 160.198 234.928C159.569 235.749 158.62 236.16 157.35 236.16ZM166.265 236V229.776C166.265 229.253 166.143 228.869 165.897 228.624C165.663 228.379 165.263 228.256 164.697 228.256C164.313 228.256 163.951 228.309 163.609 228.416C163.279 228.512 162.959 228.651 162.649 228.832V227.552C162.863 227.445 163.167 227.339 163.561 227.232C163.956 227.125 164.425 227.072 164.969 227.072C165.524 227.072 166.004 227.152 166.409 227.312C166.815 227.472 167.129 227.739 167.353 228.112C167.577 228.475 167.689 228.96 167.689 229.568V236H166.265ZM174.829 236.16C174.147 236.16 173.555 236.027 173.053 235.76C172.563 235.483 172.227 235.099 172.045 234.608H171.981L171.901 236H170.733V227.232H172.157V232.304C172.157 232.837 172.248 233.307 172.429 233.712C172.621 234.107 172.893 234.416 173.245 234.64C173.608 234.853 174.04 234.96 174.541 234.96C175.171 234.96 175.64 234.795 175.949 234.464C176.259 234.133 176.413 233.648 176.413 233.008V227.232H177.837V233.104C177.837 233.808 177.715 234.384 177.469 234.832C177.235 235.28 176.893 235.616 176.445 235.84C175.997 236.053 175.459 236.16 174.829 236.16ZM180.882 236V227.232H182.306V231.024H182.354L186.002 227.232H187.666V227.28L182.306 232.704V236H180.882ZM186.322 236V232.912C186.322 232.283 186.13 231.792 185.746 231.44C185.362 231.088 184.727 230.912 183.842 230.912L184.674 229.872C185.346 229.872 185.906 229.995 186.354 230.24C186.812 230.475 187.159 230.816 187.394 231.264C187.628 231.712 187.746 232.251 187.746 232.88V236H186.322ZM195.6 236V230.16C195.6 229.467 195.44 228.976 195.12 228.688C194.811 228.389 194.288 228.24 193.552 228.24C193.019 228.24 192.507 228.315 192.016 228.464C191.536 228.603 191.077 228.8 190.64 229.056V227.728C190.949 227.568 191.365 227.419 191.888 227.28C192.421 227.141 193.019 227.072 193.68 227.072C194.245 227.072 194.736 227.136 195.152 227.264C195.568 227.381 195.909 227.563 196.176 227.808C196.453 228.053 196.661 228.368 196.8 228.752C196.939 229.125 197.008 229.568 197.008 230.08V236H195.6ZM192.848 236.16C191.909 236.16 191.189 235.947 190.688 235.52C190.197 235.083 189.952 234.459 189.952 233.648C189.952 232.763 190.272 232.08 190.912 231.6C191.563 231.12 192.613 230.837 194.064 230.752L195.888 230.64V231.824L194.256 231.936C193.168 232.011 192.416 232.181 192 232.448C191.595 232.715 191.392 233.104 191.392 233.616C191.392 234.096 191.541 234.448 191.84 234.672C192.149 234.896 192.576 235.008 193.12 235.008C193.301 235.008 193.467 234.997 193.616 234.976C193.765 234.944 193.909 234.907 194.048 234.864L194.272 235.936C194.069 236.011 193.845 236.064 193.6 236.096C193.365 236.139 193.115 236.16 192.848 236.16ZM202.405 236V229.776C202.405 229.253 202.282 228.869 202.037 228.624C201.802 228.379 201.402 228.256 200.837 228.256C200.453 228.256 200.09 228.309 199.749 228.416C199.418 228.512 199.098 228.651 198.789 228.832V227.552C199.002 227.445 199.306 227.339 199.701 227.232C200.095 227.125 200.565 227.072 201.109 227.072C201.663 227.072 202.143 227.152 202.549 227.312C202.954 227.472 203.269 227.739 203.493 228.112C203.717 228.475 203.829 228.96 203.829 229.568V236H202.405ZM206.665 236V232.96C206.665 232.288 206.814 231.803 207.113 231.504C207.411 231.195 207.79 230.981 208.249 230.864L208.265 230.816L206.505 230.144V229.616C206.505 229.179 206.649 228.768 206.937 228.384C207.225 227.989 207.635 227.675 208.169 227.44C208.713 227.195 209.358 227.072 210.105 227.072C210.755 227.072 211.358 227.179 211.913 227.392C212.467 227.595 212.91 227.92 213.241 228.368C213.582 228.805 213.753 229.381 213.753 230.096V236H212.329V230.24C212.329 229.525 212.11 229.019 211.673 228.72C211.246 228.411 210.718 228.256 210.089 228.256C209.438 228.256 208.921 228.395 208.537 228.672C208.153 228.939 207.961 229.28 207.961 229.696L209.689 230.56L209.561 231.328C209.166 231.328 208.819 231.461 208.521 231.728C208.233 231.984 208.089 232.395 208.089 232.96V236H206.665ZM216.787 236V227.232H218.211V231.024H218.259L221.907 227.232H223.571V227.28L218.211 232.704V236H216.787ZM222.227 236V232.912C222.227 232.283 222.035 231.792 221.651 231.44C221.267 231.088 220.632 230.912 219.747 230.912L220.579 229.872C221.251 229.872 221.811 229.995 222.259 230.24C222.717 230.475 223.064 230.816 223.299 231.264C223.533 231.712 223.651 232.251 223.651 232.88V236H222.227ZM231.505 236V230.16C231.505 229.467 231.345 228.976 231.025 228.688C230.716 228.389 230.193 228.24 229.457 228.24C228.924 228.24 228.412 228.315 227.921 228.464C227.441 228.603 226.982 228.8 226.545 229.056V227.728C226.854 227.568 227.27 227.419 227.793 227.28C228.326 227.141 228.924 227.072 229.585 227.072C230.15 227.072 230.641 227.136 231.057 227.264C231.473 227.381 231.814 227.563 232.081 227.808C232.358 228.053 232.566 228.368 232.705 228.752C232.844 229.125 232.913 229.568 232.913 230.08V236H231.505ZM228.753 236.16C227.814 236.16 227.094 235.947 226.593 235.52C226.102 235.083 225.857 234.459 225.857 233.648C225.857 232.763 226.177 232.08 226.817 231.6C227.468 231.12 228.518 230.837 229.969 230.752L231.793 230.64V231.824L230.161 231.936C229.073 232.011 228.321 232.181 227.905 232.448C227.5 232.715 227.297 233.104 227.297 233.616C227.297 234.096 227.446 234.448 227.745 234.672C228.054 234.896 228.481 235.008 229.025 235.008C229.206 235.008 229.372 234.997 229.521 234.976C229.67 234.944 229.814 234.907 229.953 234.864L230.177 235.936C229.974 236.011 229.75 236.064 229.505 236.096C229.27 236.139 229.02 236.16 228.753 236.16ZM238.31 236V229.776C238.31 229.253 238.187 228.869 237.942 228.624C237.707 228.379 237.307 228.256 236.742 228.256C236.358 228.256 235.995 228.309 235.654 228.416C235.323 228.512 235.003 228.651 234.694 228.832V227.552C234.907 227.445 235.211 227.339 235.606 227.232C236 227.125 236.47 227.072 237.014 227.072C237.568 227.072 238.048 227.152 238.454 227.312C238.859 227.472 239.174 227.739 239.398 228.112C239.622 228.475 239.734 228.96 239.734 229.568V236H238.31ZM246.026 236.144C245.162 236.144 244.468 236.032 243.946 235.808C243.434 235.584 243.06 235.269 242.826 234.864C242.602 234.459 242.49 233.979 242.49 233.424C242.49 232.933 242.559 232.544 242.698 232.256C242.847 231.957 243.028 231.739 243.242 231.6C243.466 231.461 243.695 231.371 243.93 231.328V231.264C243.716 231.2 243.492 231.093 243.258 230.944C243.023 230.795 242.826 230.587 242.666 230.32C242.516 230.053 242.442 229.717 242.442 229.312C242.442 228.939 242.527 228.587 242.698 228.256C242.868 227.925 243.146 227.653 243.53 227.44C243.914 227.227 244.42 227.12 245.05 227.12C245.306 227.12 245.572 227.141 245.85 227.184C246.127 227.216 246.34 227.275 246.49 227.36L246.234 228.464C246.116 228.421 245.962 228.384 245.77 228.352C245.588 228.309 245.396 228.288 245.194 228.288C244.746 228.288 244.415 228.395 244.202 228.608C243.988 228.811 243.882 229.083 243.882 229.424C243.882 229.797 243.972 230.08 244.154 230.272C244.346 230.464 244.586 230.597 244.874 230.672C245.172 230.736 245.482 230.768 245.802 230.768H246.106V231.808H245.802C245.162 231.808 244.687 231.925 244.378 232.16C244.079 232.384 243.93 232.763 243.93 233.296C243.93 233.605 243.988 233.888 244.106 234.144C244.234 234.4 244.447 234.603 244.746 234.752C245.055 234.901 245.482 234.976 246.026 234.976C246.57 234.976 246.991 234.901 247.29 234.752C247.599 234.603 247.818 234.389 247.946 234.112C248.074 233.824 248.138 233.483 248.138 233.088V227.232H249.562V232.992C249.562 234.112 249.274 234.917 248.698 235.408C248.132 235.899 247.242 236.144 246.026 236.144Z" fill="#252525"/>
<path d="M313.296 354V348.4C313.296 347.323 313.584 346.501 314.16 345.936C314.736 345.36 315.653 345.072 316.912 345.072C318.181 345.072 319.099 345.36 319.664 345.936C320.24 346.501 320.528 347.323 320.528 348.4V354H319.104V348.4C319.104 347.685 318.917 347.152 318.544 346.8C318.171 346.437 317.621 346.256 316.896 346.256C316.181 346.256 315.637 346.437 315.264 346.8C314.901 347.152 314.72 347.685 314.72 348.4V350.176L314.768 350.192C315.003 349.776 315.291 349.504 315.632 349.376C315.973 349.237 316.453 349.168 317.072 349.168H317.6V350.336H317.072C316.421 350.336 315.925 350.427 315.584 350.608C315.253 350.789 315.024 351.029 314.896 351.328C314.779 351.616 314.72 351.941 314.72 352.304V354H313.296ZM325.204 354.16C324.788 354.16 324.383 354.117 323.988 354.032C323.604 353.947 323.193 353.787 322.756 353.552L323.204 352.464C323.439 352.603 323.705 352.725 324.004 352.832C324.303 352.928 324.649 352.976 325.044 352.976C325.833 352.976 326.447 352.688 326.884 352.112C327.332 351.525 327.556 350.683 327.556 349.584C327.556 348.507 327.327 347.685 326.868 347.12C326.42 346.544 325.727 346.256 324.788 346.256C324.447 346.256 324.1 346.293 323.748 346.368C323.396 346.443 323.087 346.555 322.82 346.704V345.504C323.129 345.344 323.465 345.232 323.828 345.168C324.201 345.104 324.575 345.072 324.948 345.072C325.908 345.072 326.687 345.264 327.284 345.648C327.881 346.021 328.319 346.544 328.596 347.216C328.873 347.888 329.012 348.677 329.012 349.584C329.012 350.992 328.692 352.107 328.052 352.928C327.423 353.749 326.473 354.16 325.204 354.16ZM334.119 354V347.776C334.119 347.253 333.996 346.869 333.751 346.624C333.516 346.379 333.116 346.256 332.551 346.256C332.167 346.256 331.804 346.309 331.463 346.416C331.132 346.512 330.812 346.651 330.503 346.832V345.552C330.716 345.445 331.02 345.339 331.415 345.232C331.81 345.125 332.279 345.072 332.823 345.072C333.378 345.072 333.858 345.152 334.263 345.312C334.668 345.472 334.983 345.739 335.207 346.112C335.431 346.475 335.543 346.96 335.543 347.568V354H334.119ZM342.683 354.16C342 354.16 341.408 354.027 340.907 353.76C340.416 353.483 340.08 353.099 339.899 352.608H339.835L339.755 354H338.587V345.232H340.011V350.304C340.011 350.837 340.102 351.307 340.283 351.712C340.475 352.107 340.747 352.416 341.099 352.64C341.462 352.853 341.894 352.96 342.395 352.96C343.024 352.96 343.494 352.795 343.803 352.464C344.112 352.133 344.267 351.648 344.267 351.008V345.232H345.691V351.104C345.691 351.808 345.568 352.384 345.323 352.832C345.088 353.28 344.747 353.616 344.299 353.84C343.851 354.053 343.312 354.16 342.683 354.16ZM351.983 354.144C351.119 354.144 350.426 354.032 349.903 353.808C349.391 353.584 349.018 353.269 348.783 352.864C348.559 352.459 348.447 351.979 348.447 351.424C348.447 350.933 348.517 350.544 348.655 350.256C348.805 349.957 348.986 349.739 349.199 349.6C349.423 349.461 349.653 349.371 349.887 349.328V349.264C349.674 349.2 349.45 349.093 349.215 348.944C348.981 348.795 348.783 348.587 348.623 348.32C348.474 348.053 348.399 347.717 348.399 347.312C348.399 346.939 348.485 346.587 348.655 346.256C348.826 345.925 349.103 345.653 349.487 345.44C349.871 345.227 350.378 345.12 351.007 345.12C351.263 345.12 351.53 345.141 351.807 345.184C352.085 345.216 352.298 345.275 352.447 345.36L352.191 346.464C352.074 346.421 351.919 346.384 351.727 346.352C351.546 346.309 351.354 346.288 351.151 346.288C350.703 346.288 350.373 346.395 350.159 346.608C349.946 346.811 349.839 347.083 349.839 347.424C349.839 347.797 349.93 348.08 350.111 348.272C350.303 348.464 350.543 348.597 350.831 348.672C351.13 348.736 351.439 348.768 351.759 348.768H352.063V349.808H351.759C351.119 349.808 350.645 349.925 350.335 350.16C350.037 350.384 349.887 350.763 349.887 351.296C349.887 351.605 349.946 351.888 350.063 352.144C350.191 352.4 350.405 352.603 350.703 352.752C351.013 352.901 351.439 352.976 351.983 352.976C352.527 352.976 352.949 352.901 353.247 352.752C353.557 352.603 353.775 352.389 353.903 352.112C354.031 351.824 354.095 351.483 354.095 351.088V345.232H355.519V350.992C355.519 352.112 355.231 352.917 354.655 353.408C354.09 353.899 353.199 354.144 351.983 354.144ZM360.907 354V347.776C360.907 347.253 360.785 346.869 360.539 346.624C360.305 346.379 359.905 346.256 359.339 346.256C358.955 346.256 358.593 346.309 358.251 346.416C357.921 346.512 357.601 346.651 357.291 346.832V345.552C357.505 345.445 357.809 345.339 358.203 345.232C358.598 345.125 359.067 345.072 359.611 345.072C360.166 345.072 360.646 345.152 361.051 345.312C361.457 345.472 361.771 345.739 361.995 346.112C362.219 346.475 362.331 346.96 362.331 347.568V354H360.907ZM365.167 354V350.96C365.167 350.288 365.317 349.803 365.615 349.504C365.914 349.195 366.293 348.981 366.751 348.864L366.767 348.816L365.007 348.144V347.616C365.007 347.179 365.151 346.768 365.439 346.384C365.727 345.989 366.138 345.675 366.671 345.44C367.215 345.195 367.861 345.072 368.607 345.072C369.258 345.072 369.861 345.179 370.415 345.392C370.97 345.595 371.413 345.92 371.743 346.368C372.085 346.805 372.255 347.381 372.255 348.096V354H370.831V348.24C370.831 347.525 370.613 347.019 370.175 346.72C369.749 346.411 369.221 346.256 368.591 346.256C367.941 346.256 367.423 346.395 367.039 346.672C366.655 346.939 366.463 347.28 366.463 347.696L368.191 348.56L368.063 349.328C367.669 349.328 367.322 349.461 367.023 349.728C366.735 349.984 366.591 350.395 366.591 350.96V354H365.167Z" fill="#252525"/>
<path d="M361 523L369 515L361 507" stroke="#252525" stroke-width="3.5" stroke-linecap="round" stroke-linejoin="round"/>
<path d="M76 506L68 514L76 522" stroke="#252525" stroke-width="3.5" stroke-linecap="round" stroke-linejoin="round"/>
<path d="M124.428 521.17C123.76 521.17 123.136 521.108 122.558 520.983C121.992 520.847 121.51 520.688 121.113 520.507L121.555 519.283C121.793 519.374 122.065 519.47 122.371 519.572C122.677 519.674 123.006 519.759 123.357 519.827C123.72 519.884 124.088 519.912 124.462 519.912C125.063 519.912 125.562 519.799 125.958 519.572C126.355 519.345 126.553 519.017 126.553 518.586C126.553 518.325 126.48 518.104 126.332 517.923C126.196 517.73 125.981 517.555 125.686 517.396C125.392 517.237 125.012 517.084 124.547 516.937C123.833 516.71 123.227 516.472 122.728 516.223C122.241 515.962 121.867 515.656 121.606 515.305C121.357 514.942 121.232 514.495 121.232 513.962C121.232 513.486 121.357 513.067 121.606 512.704C121.867 512.33 122.264 512.041 122.796 511.837C123.34 511.622 124.032 511.514 124.87 511.514C125.414 511.514 125.924 511.565 126.4 511.667C126.888 511.758 127.267 511.888 127.539 512.058V513.333C127.347 513.242 127.103 513.152 126.808 513.061C126.525 512.97 126.213 512.897 125.873 512.84C125.533 512.783 125.182 512.755 124.819 512.755C124.06 512.755 123.522 512.874 123.204 513.112C122.898 513.339 122.745 513.599 122.745 513.894C122.745 514.143 122.813 514.353 122.949 514.523C123.097 514.693 123.34 514.857 123.68 515.016C124.032 515.175 124.502 515.356 125.091 515.56C125.635 515.741 126.134 515.951 126.587 516.189C127.041 516.427 127.398 516.727 127.658 517.09C127.93 517.441 128.066 517.895 128.066 518.45C128.066 518.926 127.947 519.374 127.709 519.793C127.483 520.201 127.103 520.535 126.57 520.796C126.038 521.045 125.324 521.17 124.428 521.17ZM133.596 521V514.387C133.596 513.832 133.466 513.424 133.205 513.163C132.956 512.902 132.531 512.772 131.93 512.772C131.522 512.772 131.137 512.829 130.774 512.942C130.423 513.044 130.083 513.191 129.754 513.384V512.024C129.981 511.911 130.304 511.797 130.723 511.684C131.142 511.571 131.641 511.514 132.219 511.514C132.808 511.514 133.318 511.599 133.749 511.769C134.18 511.939 134.514 512.222 134.752 512.619C134.99 513.004 135.109 513.52 135.109 514.166V521H133.596ZM142.304 521.153C141.386 521.153 140.65 521.034 140.094 520.796C139.55 520.558 139.154 520.224 138.904 519.793C138.666 519.362 138.547 518.852 138.547 518.263C138.547 517.742 138.621 517.328 138.768 517.022C138.927 516.705 139.12 516.472 139.346 516.325C139.584 516.178 139.828 516.081 140.077 516.036V515.968C139.851 515.9 139.613 515.787 139.363 515.628C139.114 515.469 138.904 515.248 138.734 514.965C138.576 514.682 138.496 514.325 138.496 513.894C138.496 513.497 138.587 513.123 138.768 512.772C138.95 512.421 139.244 512.132 139.652 511.905C140.06 511.678 140.599 511.565 141.267 511.565C141.539 511.565 141.823 511.588 142.117 511.633C142.412 511.667 142.639 511.729 142.797 511.82L142.525 512.993C142.401 512.948 142.236 512.908 142.032 512.874C141.84 512.829 141.636 512.806 141.42 512.806C140.944 512.806 140.593 512.919 140.366 513.146C140.14 513.361 140.026 513.65 140.026 514.013C140.026 514.41 140.123 514.71 140.315 514.914C140.519 515.118 140.774 515.26 141.08 515.339C141.398 515.407 141.726 515.441 142.066 515.441H142.389V516.546H142.066C141.386 516.546 140.882 516.671 140.553 516.92C140.236 517.158 140.077 517.56 140.077 518.127C140.077 518.456 140.14 518.756 140.264 519.028C140.4 519.3 140.627 519.515 140.944 519.674C141.273 519.833 141.726 519.912 142.304 519.912C142.882 519.912 143.33 519.833 143.647 519.674C143.976 519.515 144.208 519.289 144.344 518.994C144.48 518.688 144.548 518.325 144.548 517.906V511.684H146.061V517.804C146.061 518.994 145.755 519.85 145.143 520.371C144.543 520.892 143.596 521.153 142.304 521.153ZM155.118 521V514.795C155.118 514.058 154.948 513.537 154.608 513.231C154.279 512.914 153.724 512.755 152.942 512.755C152.375 512.755 151.831 512.834 151.31 512.993C150.8 513.14 150.313 513.35 149.848 513.622V512.211C150.177 512.041 150.619 511.882 151.174 511.735C151.741 511.588 152.375 511.514 153.078 511.514C153.679 511.514 154.2 511.582 154.642 511.718C155.084 511.843 155.447 512.035 155.73 512.296C156.025 512.557 156.246 512.891 156.393 513.299C156.54 513.696 156.614 514.166 156.614 514.71V521H155.118ZM152.194 521.17C151.197 521.17 150.432 520.943 149.899 520.49C149.378 520.025 149.117 519.362 149.117 518.501C149.117 517.56 149.457 516.835 150.137 516.325C150.828 515.815 151.945 515.515 153.486 515.424L155.424 515.305V516.563L153.69 516.682C152.534 516.761 151.735 516.943 151.293 517.226C150.862 517.509 150.647 517.923 150.647 518.467C150.647 518.977 150.806 519.351 151.123 519.589C151.452 519.827 151.905 519.946 152.483 519.946C152.676 519.946 152.851 519.935 153.01 519.912C153.169 519.878 153.322 519.838 153.469 519.793L153.707 520.932C153.492 521.011 153.254 521.068 152.993 521.102C152.744 521.147 152.477 521.17 152.194 521.17ZM161.447 515.152C160.982 515.152 160.603 515.084 160.308 514.948C160.025 514.801 159.821 514.619 159.696 514.404C159.571 514.177 159.509 513.939 159.509 513.69C159.509 513.52 159.532 513.344 159.577 513.163C159.634 512.982 159.702 512.829 159.781 512.704L161.056 512.908C161.033 512.965 161.005 513.044 160.971 513.146C160.948 513.248 160.937 513.35 160.937 513.452C160.937 513.599 160.977 513.724 161.056 513.826C161.135 513.917 161.283 513.962 161.498 513.962H163.929V515.152H161.447ZM161.447 519.912C160.982 519.912 160.603 519.844 160.308 519.708C160.025 519.561 159.821 519.379 159.696 519.164C159.571 518.937 159.509 518.699 159.509 518.45C159.509 518.28 159.532 518.104 159.577 517.923C159.634 517.742 159.702 517.589 159.781 517.464L161.056 517.668C161.033 517.725 161.005 517.804 160.971 517.906C160.948 518.008 160.937 518.11 160.937 518.212C160.937 518.359 160.977 518.484 161.056 518.586C161.135 518.677 161.283 518.722 161.498 518.722H163.929V519.912H161.447ZM168.925 521.17C168.619 521.17 168.324 521.119 168.041 521.017C167.758 520.915 167.525 520.734 167.344 520.473C167.163 520.212 167.072 519.85 167.072 519.385V511.684H168.585V519.198C168.585 519.459 168.642 519.646 168.755 519.759C168.868 519.872 169.05 519.929 169.299 519.929C169.401 519.929 169.509 519.918 169.622 519.895C169.735 519.872 169.843 519.844 169.945 519.81L170.149 520.915C169.934 521.017 169.724 521.085 169.52 521.119C169.316 521.153 169.118 521.17 168.925 521.17ZM175.813 521.17C174.589 521.17 173.671 520.853 173.059 520.218C172.458 519.572 172.158 518.563 172.158 517.192C172.158 516.965 172.163 516.722 172.175 516.461C172.197 516.189 172.22 515.923 172.243 515.662H175.813V516.852H173.671V517.192C173.671 517.906 173.75 518.467 173.909 518.875C174.067 519.272 174.3 519.549 174.606 519.708C174.923 519.867 175.314 519.946 175.779 519.946C176.289 519.946 176.731 519.85 177.105 519.657C177.479 519.464 177.768 519.113 177.972 518.603C178.176 518.093 178.278 517.362 178.278 516.41C178.278 515.571 178.187 514.886 178.006 514.353C177.824 513.82 177.524 513.424 177.105 513.163C176.697 512.902 176.141 512.772 175.439 512.772C175.076 512.772 174.725 512.806 174.385 512.874C174.045 512.931 173.716 513.021 173.399 513.146C173.081 513.259 172.77 513.407 172.464 513.588V512.177C172.69 512.052 172.968 511.945 173.297 511.854C173.625 511.752 173.988 511.673 174.385 511.616C174.781 511.548 175.195 511.514 175.626 511.514C176.623 511.514 177.428 511.718 178.04 512.126C178.663 512.523 179.116 513.089 179.4 513.826C179.683 514.551 179.825 515.413 179.825 516.41C179.825 517.407 179.694 518.263 179.434 518.977C179.173 519.691 178.748 520.235 178.159 520.609C177.581 520.983 176.799 521.17 175.813 521.17ZM172.845 510.205V509.542L174.086 508.998H180.07V510.205H172.845ZM178.659 509.542V507.621H180.087V509.542H178.659ZM187.563 521.153C186.645 521.153 185.909 521.034 185.353 520.796C184.809 520.558 184.413 520.224 184.163 519.793C183.925 519.362 183.806 518.852 183.806 518.263C183.806 517.742 183.88 517.328 184.027 517.022C184.186 516.705 184.379 516.472 184.605 516.325C184.843 516.178 185.087 516.081 185.336 516.036V515.968C185.11 515.9 184.872 515.787 184.622 515.628C184.373 515.469 184.163 515.248 183.993 514.965C183.835 514.682 183.755 514.325 183.755 513.894C183.755 513.497 183.846 513.123 184.027 512.772C184.209 512.421 184.503 512.132 184.911 511.905C185.319 511.678 185.858 511.565 186.526 511.565C186.798 511.565 187.082 511.588 187.376 511.633C187.671 511.667 187.898 511.729 188.056 511.82L187.784 512.993C187.66 512.948 187.495 512.908 187.291 512.874C187.099 512.829 186.895 512.806 186.679 512.806C186.203 512.806 185.852 512.919 185.625 513.146C185.399 513.361 185.285 513.65 185.285 514.013C185.285 514.41 185.382 514.71 185.574 514.914C185.778 515.118 186.033 515.26 186.339 515.339C186.657 515.407 186.985 515.441 187.325 515.441H187.648V516.546H187.325C186.645 516.546 186.141 516.671 185.812 516.92C185.495 517.158 185.336 517.56 185.336 518.127C185.336 518.456 185.399 518.756 185.523 519.028C185.659 519.3 185.886 519.515 186.203 519.674C186.532 519.833 186.985 519.912 187.563 519.912C188.141 519.912 188.589 519.833 188.906 519.674C189.235 519.515 189.467 519.289 189.603 518.994C189.739 518.688 189.807 518.325 189.807 517.906V511.684H191.32V517.804C191.32 518.994 191.014 519.85 190.402 520.371C189.802 520.892 188.855 521.153 187.563 521.153ZM198.099 521.17C197.193 521.17 196.479 520.96 195.957 520.541C195.447 520.11 195.085 519.532 194.869 518.807C194.665 518.082 194.563 517.283 194.563 516.41C194.563 515.447 194.66 514.653 194.852 514.03C195.056 513.395 195.34 512.897 195.702 512.534C196.076 512.16 196.518 511.899 197.028 511.752C197.55 511.593 198.122 511.514 198.745 511.514C199.652 511.514 200.389 511.65 200.955 511.922C201.533 512.183 201.958 512.557 202.23 513.044C202.502 513.531 202.638 514.115 202.638 514.795V521H201.142V514.931C201.142 514.228 200.967 513.696 200.615 513.333C200.264 512.959 199.658 512.772 198.796 512.772C198.275 512.772 197.805 512.868 197.385 513.061C196.977 513.254 196.654 513.611 196.416 514.132C196.19 514.653 196.076 515.418 196.076 516.427C196.076 517.084 196.139 517.679 196.263 518.212C196.399 518.733 196.632 519.147 196.96 519.453C197.289 519.759 197.748 519.912 198.337 519.912C198.507 519.912 198.666 519.901 198.813 519.878C198.961 519.855 199.102 519.821 199.238 519.776L199.391 520.949C199.21 521.028 199 521.085 198.762 521.119C198.536 521.153 198.315 521.17 198.099 521.17ZM206.297 521V511.684H207.351L207.623 513.163H207.691C207.883 512.653 208.235 512.251 208.745 511.956C209.255 511.661 209.872 511.514 210.598 511.514C211.278 511.514 211.856 511.633 212.332 511.871C212.819 512.098 213.193 512.449 213.454 512.925C213.714 513.401 213.845 514.019 213.845 514.778V521H212.332V514.863C212.332 514.183 212.162 513.667 211.822 513.316C211.482 512.965 210.977 512.789 210.309 512.789C209.776 512.789 209.323 512.914 208.949 513.163C208.575 513.412 208.291 513.752 208.099 514.183C207.906 514.602 207.81 515.078 207.81 515.611V521H206.297ZM207.29 510.205V509.542L208.531 508.998H214.515V510.205H207.29ZM213.104 509.542V507.621H214.532V509.542H213.104ZM213.937 506.618V503.847H215.382V506.618H213.937ZM223.643 521.17C222.918 521.17 222.289 521.028 221.756 520.745C221.235 520.45 220.878 520.042 220.685 519.521H220.617L220.532 521H219.291V511.684H220.804V517.073C220.804 517.64 220.9 518.138 221.093 518.569C221.297 518.988 221.586 519.317 221.96 519.555C222.345 519.782 222.804 519.895 223.337 519.895C224.006 519.895 224.504 519.719 224.833 519.368C225.162 519.017 225.326 518.501 225.326 517.821V511.684H226.839V517.923C226.839 518.671 226.709 519.283 226.448 519.759C226.199 520.235 225.836 520.592 225.36 520.83C224.884 521.057 224.312 521.17 223.643 521.17ZM233.083 521V514.387C233.083 513.832 232.952 513.424 232.692 513.163C232.442 512.902 232.017 512.772 231.417 512.772C231.009 512.772 230.623 512.829 230.261 512.942C229.909 513.044 229.569 513.191 229.241 513.384V512.024C229.467 511.911 229.79 511.797 230.21 511.684C230.629 511.571 231.128 511.514 231.706 511.514C232.295 511.514 232.805 511.599 233.236 511.769C233.666 511.939 234.001 512.222 234.239 512.619C234.477 513.004 234.596 513.52 234.596 514.166V521H233.083ZM241.485 521.17C240.419 521.17 239.592 520.915 239.003 520.405C238.425 519.884 238.136 519.107 238.136 518.076V517.039C238.136 516.472 238.215 516.025 238.374 515.696C238.532 515.367 238.702 515.084 238.884 514.846C239.076 514.585 239.241 514.359 239.377 514.166C239.524 513.973 239.598 513.741 239.598 513.469C239.598 513.231 239.535 513.061 239.411 512.959C239.297 512.857 239.15 512.806 238.969 512.806C238.833 512.806 238.685 512.829 238.527 512.874C238.379 512.919 238.232 512.976 238.085 513.044L237.745 511.956C237.949 511.82 238.198 511.724 238.493 511.667C238.799 511.61 239.065 511.582 239.292 511.582C239.711 511.582 240.045 511.656 240.295 511.803C240.555 511.95 240.742 512.154 240.856 512.415C240.969 512.664 241.026 512.959 241.026 513.299C241.026 513.718 240.952 514.064 240.805 514.336C240.669 514.608 240.504 514.874 240.312 515.135C240.119 515.418 239.96 515.69 239.836 515.951C239.711 516.212 239.649 516.552 239.649 516.971V517.974C239.649 518.495 239.734 518.898 239.904 519.181C240.074 519.464 240.3 519.663 240.584 519.776C240.867 519.878 241.167 519.929 241.485 519.929C242.051 519.929 242.482 519.799 242.777 519.538C243.083 519.266 243.236 518.852 243.236 518.297V511.684H244.749V518.382C244.749 519.255 244.471 519.94 243.916 520.439C243.372 520.926 242.561 521.17 241.485 521.17ZM251.649 521.17C250.425 521.17 249.507 520.853 248.895 520.218C248.294 519.572 247.994 518.563 247.994 517.192C247.994 516.965 247.999 516.722 248.011 516.461C248.033 516.189 248.056 515.923 248.079 515.662H251.649V516.852H249.507V517.192C249.507 517.906 249.586 518.467 249.745 518.875C249.903 519.272 250.136 519.549 250.442 519.708C250.759 519.867 251.15 519.946 251.615 519.946C252.125 519.946 252.567 519.85 252.941 519.657C253.315 519.464 253.604 519.113 253.808 518.603C254.012 518.093 254.114 517.362 254.114 516.41C254.114 515.571 254.023 514.886 253.842 514.353C253.66 513.82 253.36 513.424 252.941 513.163C252.533 512.902 251.977 512.772 251.275 512.772C250.912 512.772 250.561 512.806 250.221 512.874C249.881 512.931 249.552 513.021 249.235 513.146C248.917 513.259 248.606 513.407 248.3 513.588V512.177C248.526 512.052 248.804 511.945 249.133 511.854C249.461 511.752 249.824 511.673 250.221 511.616C250.617 511.548 251.031 511.514 251.462 511.514C252.459 511.514 253.264 511.718 253.876 512.126C254.499 512.523 254.952 513.089 255.236 513.826C255.519 514.551 255.661 515.413 255.661 516.41C255.661 517.407 255.53 518.263 255.27 518.977C255.009 519.691 254.584 520.235 253.995 520.609C253.417 520.983 252.635 521.17 251.649 521.17ZM260.492 521L257.585 511.684H259.115L261.631 519.691H261.835C262.107 519.691 262.374 519.629 262.634 519.504C262.895 519.368 263.116 519.198 263.297 518.994C263.637 518.62 263.887 518.15 264.045 517.583C264.204 517.005 264.283 516.438 264.283 515.883C264.283 514.942 264.068 514.206 263.637 513.673C263.218 513.129 262.634 512.857 261.886 512.857C261.739 512.857 261.592 512.868 261.444 512.891C261.308 512.914 261.195 512.942 261.104 512.976L260.73 511.769C260.968 511.701 261.189 511.656 261.393 511.633C261.609 511.61 261.801 511.599 261.971 511.599C262.538 511.599 263.042 511.684 263.484 511.854C263.938 512.013 264.323 512.251 264.64 512.568C265.037 512.953 265.326 513.435 265.507 514.013C265.7 514.591 265.796 515.231 265.796 515.934C265.796 516.818 265.66 517.606 265.388 518.297C265.116 518.977 264.776 519.521 264.368 519.929C264.04 520.258 263.637 520.518 263.161 520.711C262.685 520.904 262.079 521 261.342 521H260.492ZM268.943 521V515.05C268.943 513.905 269.249 513.033 269.861 512.432C270.473 511.82 271.448 511.514 272.785 511.514C274.134 511.514 275.109 511.82 275.709 512.432C276.321 513.033 276.627 513.905 276.627 515.05V521H275.114V515.05C275.114 514.291 274.916 513.724 274.519 513.35C274.123 512.965 273.539 512.772 272.768 512.772C272.009 512.772 271.431 512.965 271.034 513.35C270.649 513.724 270.456 514.291 270.456 515.05V516.937L270.507 516.954C270.757 516.512 271.063 516.223 271.425 516.087C271.788 515.94 272.298 515.866 272.955 515.866H273.516V517.107H272.955C272.264 517.107 271.737 517.203 271.374 517.396C271.023 517.589 270.779 517.844 270.643 518.161C270.519 518.467 270.456 518.813 270.456 519.198V521H268.943ZM281.46 515.152C280.995 515.152 280.615 515.084 280.321 514.948C280.037 514.801 279.833 514.619 279.709 514.404C279.584 514.177 279.522 513.939 279.522 513.69C279.522 513.52 279.544 513.344 279.59 513.163C279.646 512.982 279.714 512.829 279.794 512.704L281.069 512.908C281.046 512.965 281.018 513.044 280.984 513.146C280.961 513.248 280.95 513.35 280.95 513.452C280.95 513.599 280.989 513.724 281.069 513.826C281.148 513.917 281.295 513.962 281.511 513.962H283.942V515.152H281.46ZM281.46 519.912C280.995 519.912 280.615 519.844 280.321 519.708C280.037 519.561 279.833 519.379 279.709 519.164C279.584 518.937 279.522 518.699 279.522 518.45C279.522 518.28 279.544 518.104 279.59 517.923C279.646 517.742 279.714 517.589 279.794 517.464L281.069 517.668C281.046 517.725 281.018 517.804 280.984 517.906C280.961 518.008 280.95 518.11 280.95 518.212C280.95 518.359 280.989 518.484 281.069 518.586C281.148 518.677 281.295 518.722 281.511 518.722H283.942V519.912H281.46ZM288.938 521.17C288.632 521.17 288.337 521.119 288.054 521.017C287.77 520.915 287.538 520.734 287.357 520.473C287.175 520.212 287.085 519.85 287.085 519.385V511.684H288.598V519.198C288.598 519.459 288.654 519.646 288.768 519.759C288.881 519.872 289.062 519.929 289.312 519.929C289.414 519.929 289.521 519.918 289.635 519.895C289.748 519.872 289.856 519.844 289.958 519.81L290.162 520.915C289.946 521.017 289.737 521.085 289.533 521.119C289.329 521.153 289.13 521.17 288.938 521.17ZM293.579 521.17C293.273 521.17 292.978 521.119 292.695 521.017C292.411 520.915 292.179 520.734 291.998 520.473C291.816 520.212 291.726 519.85 291.726 519.385V511.684H293.239V519.198C293.239 519.459 293.295 519.646 293.409 519.759C293.522 519.872 293.703 519.929 293.953 519.929C294.055 519.929 294.162 519.918 294.276 519.895C294.389 519.872 294.497 519.844 294.599 519.81L294.803 520.915C294.587 521.017 294.378 521.085 294.174 521.119C293.97 521.153 293.771 521.17 293.579 521.17ZM300.455 521.17C299.787 521.17 299.209 521.057 298.721 520.83C298.245 520.592 297.877 520.235 297.616 519.759C297.367 519.283 297.242 518.665 297.242 517.906V511.684H298.755V517.821C298.755 518.501 298.925 519.017 299.265 519.368C299.617 519.719 300.121 519.895 300.778 519.895C301.572 519.895 302.184 519.64 302.614 519.13C303.056 518.62 303.277 517.934 303.277 517.073V511.684H304.79V521H303.532L303.464 519.623H303.379C303.175 520.076 302.818 520.45 302.308 520.745C301.81 521.028 301.192 521.17 300.455 521.17ZM311.731 521.17C311.062 521.17 310.484 521.057 309.997 520.83C309.521 520.592 309.153 520.235 308.892 519.759C308.643 519.283 308.518 518.665 308.518 517.906V511.684H310.031V517.821C310.031 518.501 310.201 519.017 310.541 519.368C310.892 519.719 311.397 519.895 312.054 519.895C312.847 519.895 313.459 519.64 313.89 519.13C314.332 518.62 314.553 517.934 314.553 517.073V511.684H316.066V521H314.808L314.74 519.623H314.655C314.451 520.076 314.094 520.45 313.584 520.745C313.085 521.028 312.468 521.17 311.731 521.17Z" fill="#B4B4B4"/>
<defs>
<filter id="filter0_d_906_3598" x="0" y="0" width="437" height="599" filterUnits="userSpaceOnUse" color-interpolation-filters="sRGB">
<feFlood flood-opacity="0" result="BackgroundImageFix"/>
<feColorMatrix in="SourceAlpha" type="matrix" values="0 0 0 0 0 0 0 0 0 0 0 0 0 0 0 0 0 0 127 0" result="hardAlpha"/>
<feOffset dy="4"/>
<feGaussianBlur stdDeviation="10"/>
<feComposite in2="hardAlpha" operator="out"/>
<feColorMatrix type="matrix" values="0 0 0 0 0 0 0 0 0 0 0 0 0 0 0 0 0 0 0.25 0"/>
<feBlend mode="normal" in2="BackgroundImageFix" result="effect1_dropShadow_906_3598"/>
<feBlend mode="normal" in="SourceGraphic" in2="effect1_dropShadow_906_3598" result="shape"/>
</filter>
</defs>
</svg>
