<svg width="267" height="224" viewBox="0 0 267 224" fill="none" xmlns="http://www.w3.org/2000/svg">
<path d="M17 51C17 45.4772 21.4772 41 27 41H100V124H17V51Z" fill="#FEB800"/>
<path d="M17 124H100V207H27C21.4772 207 17 202.523 17 197V124Z" fill="#7EB900"/>
<path d="M100 41H173C178.523 41 183 45.4772 183 51V124H100V41Z" fill="#00A3EE"/>
<path d="M100 124H183V197C183 202.523 178.523 207 173 207H100V124Z" fill="#F14F21"/>
<path d="M100 25V222" stroke="black" stroke-width="3" stroke-linecap="round"/>
<path d="M2 124L199 124" stroke="black" stroke-width="3" stroke-linecap="round"/>
<path d="M64.4957 13V8.1C64.4957 7.15733 64.7477 6.43867 65.2517 5.944C65.7557 5.44 66.5584 5.188 67.6597 5.188C68.7704 5.188 69.5731 5.44 70.0677 5.944C70.5717 6.43867 70.8237 7.15733 70.8237 8.1V13H69.5777V8.1C69.5777 7.47467 69.4144 7.008 69.0877 6.7C68.7611 6.38267 68.2804 6.224 67.6457 6.224C67.0204 6.224 66.5444 6.38267 66.2177 6.7C65.9004 7.008 65.7417 7.47467 65.7417 8.1V9.654L65.7837 9.668C65.9891 9.304 66.2411 9.066 66.5397 8.954C66.8384 8.83267 67.2584 8.772 67.7997 8.772H68.2617V9.794H67.7997C67.2304 9.794 66.7964 9.87333 66.4977 10.032C66.2084 10.1907 66.0077 10.4007 65.8957 10.662C65.7931 10.914 65.7417 11.1987 65.7417 11.516V13H64.4957ZM74.9153 13.14C74.5513 13.14 74.1967 13.1027 73.8513 13.028C73.5153 12.9533 73.156 12.8133 72.7733 12.608L73.1653 11.656C73.3707 11.7773 73.604 11.8847 73.8653 11.978C74.1267 12.062 74.43 12.104 74.7753 12.104C75.466 12.104 76.0027 11.852 76.3853 11.348C76.7773 10.8347 76.9733 10.0973 76.9733 9.136C76.9733 8.19333 76.7727 7.47467 76.3713 6.98C75.9793 6.476 75.3727 6.224 74.5513 6.224C74.2527 6.224 73.9493 6.25667 73.6413 6.322C73.3333 6.38733 73.0627 6.48533 72.8293 6.616V5.566C73.1 5.426 73.394 5.328 73.7113 5.272C74.038 5.216 74.3647 5.188 74.6913 5.188C75.5313 5.188 76.2127 5.356 76.7353 5.692C77.258 6.01867 77.6407 6.476 77.8833 7.064C78.126 7.652 78.2473 8.34267 78.2473 9.136C78.2473 10.368 77.9673 11.3433 77.4073 12.062C76.8567 12.7807 76.026 13.14 74.9153 13.14ZM82.716 13V7.554C82.716 7.09667 82.6086 6.76067 82.394 6.546C82.1886 6.33133 81.8386 6.224 81.344 6.224C81.008 6.224 80.6906 6.27067 80.392 6.364C80.1026 6.448 79.8226 6.56933 79.552 6.728V5.608C79.7386 5.51467 80.0046 5.42133 80.35 5.328C80.6953 5.23467 81.106 5.188 81.582 5.188C82.0673 5.188 82.4873 5.258 82.842 5.398C83.1966 5.538 83.472 5.77133 83.668 6.098C83.864 6.41533 83.962 6.84 83.962 7.372V13H82.716ZM90.2095 13.14C89.6121 13.14 89.0941 13.0233 88.6555 12.79C88.2261 12.5473 87.9321 12.2113 87.7735 11.782H87.7175L87.6475 13H86.6255V5.328H87.8715V9.766C87.8715 10.2327 87.9508 10.6433 88.1095 10.998C88.2775 11.3433 88.5155 11.614 88.8235 11.81C89.1408 11.9967 89.5188 12.09 89.9575 12.09C90.5081 12.09 90.9188 11.9453 91.1895 11.656C91.4601 11.3667 91.5955 10.942 91.5955 10.382V5.328H92.8415V10.466C92.8415 11.082 92.7341 11.586 92.5195 11.978C92.3141 12.37 92.0155 12.664 91.6235 12.86C91.2315 13.0467 90.7601 13.14 90.2095 13.14ZM99.8871 13V7.89C99.8871 7.28333 99.7471 6.854 99.4671 6.602C99.1964 6.34067 98.7391 6.21 98.0951 6.21C97.6284 6.21 97.1804 6.27533 96.7511 6.406C96.3311 6.52733 95.9297 6.7 95.5471 6.924V5.762C95.8177 5.622 96.1817 5.49133 96.6391 5.37C97.1057 5.24867 97.6284 5.188 98.2071 5.188C98.7017 5.188 99.1311 5.244 99.4951 5.356C99.8591 5.45867 100.158 5.61733 100.391 5.832C100.634 6.04667 100.816 6.322 100.937 6.658C101.058 6.98467 101.119 7.372 101.119 7.82V13H99.8871ZM97.4791 13.14C96.6577 13.14 96.0277 12.9533 95.5891 12.58C95.1597 12.1973 94.9451 11.6513 94.9451 10.942C94.9451 10.1673 95.2251 9.57 95.7851 9.15C96.3544 8.73 97.2737 8.48267 98.5431 8.408L100.139 8.31V9.346L98.7111 9.444C97.7591 9.50933 97.1011 9.65867 96.7371 9.892C96.3824 10.1253 96.2051 10.466 96.2051 10.914C96.2051 11.334 96.3357 11.642 96.5971 11.838C96.8677 12.034 97.2411 12.132 97.7171 12.132C97.8757 12.132 98.0204 12.1227 98.1511 12.104C98.2817 12.076 98.4077 12.0433 98.5291 12.006L98.7251 12.944C98.5477 13.0093 98.3517 13.056 98.1371 13.084C97.9317 13.1213 97.7124 13.14 97.4791 13.14ZM104.679 8.184C104.296 8.184 103.984 8.128 103.741 8.016C103.508 7.89467 103.34 7.74533 103.237 7.568C103.134 7.38133 103.083 7.18533 103.083 6.98C103.083 6.84 103.102 6.69533 103.139 6.546C103.186 6.39667 103.242 6.27067 103.307 6.168L104.357 6.336C104.338 6.38267 104.315 6.448 104.287 6.532C104.268 6.616 104.259 6.7 104.259 6.784C104.259 6.90533 104.292 7.008 104.357 7.092C104.422 7.16667 104.544 7.204 104.721 7.204H106.723V8.184H104.679ZM104.679 12.104C104.296 12.104 103.984 12.048 103.741 11.936C103.508 11.8147 103.34 11.6653 103.237 11.488C103.134 11.3013 103.083 11.1053 103.083 10.9C103.083 10.76 103.102 10.6153 103.139 10.466C103.186 10.3167 103.242 10.1907 103.307 10.088L104.357 10.256C104.338 10.3027 104.315 10.368 104.287 10.452C104.268 10.536 104.259 10.62 104.259 10.704C104.259 10.8253 104.292 10.928 104.357 11.012C104.422 11.0867 104.544 11.124 104.721 11.124H106.723V12.104H104.679ZM110.418 13.14C110.166 13.14 109.923 13.098 109.69 13.014C109.456 12.93 109.265 12.7807 109.116 12.566C108.966 12.3513 108.892 12.0527 108.892 11.67V5.328H110.138V11.516C110.138 11.7307 110.184 11.8847 110.278 11.978C110.371 12.0713 110.52 12.118 110.726 12.118C110.81 12.118 110.898 12.1087 110.992 12.09C111.085 12.0713 111.174 12.048 111.258 12.02L111.426 12.93C111.248 13.014 111.076 13.07 110.908 13.098C110.74 13.126 110.576 13.14 110.418 13.14ZM115.67 13.14C114.662 13.14 113.906 12.8787 113.402 12.356C112.907 11.824 112.66 10.9933 112.66 9.864C112.66 9.67733 112.664 9.47667 112.674 9.262C112.692 9.038 112.711 8.81867 112.73 8.604H115.67V9.584H113.906V9.864C113.906 10.452 113.971 10.914 114.102 11.25C114.232 11.5767 114.424 11.8053 114.676 11.936C114.937 12.0667 115.259 12.132 115.642 12.132C116.062 12.132 116.426 12.0527 116.734 11.894C117.042 11.7353 117.28 11.446 117.448 11.026C117.616 10.606 117.7 10.004 117.7 9.22C117.7 8.52933 117.625 7.96467 117.476 7.526C117.326 7.08733 117.079 6.76067 116.734 6.546C116.398 6.33133 115.94 6.224 115.362 6.224C115.063 6.224 114.774 6.252 114.494 6.308C114.214 6.35467 113.943 6.42933 113.682 6.532C113.42 6.62533 113.164 6.74667 112.912 6.896V5.734C113.098 5.63133 113.327 5.54267 113.598 5.468C113.868 5.384 114.167 5.31867 114.494 5.272C114.82 5.216 115.161 5.188 115.516 5.188C116.337 5.188 117 5.356 117.504 5.692C118.017 6.01867 118.39 6.48533 118.624 7.092C118.857 7.68933 118.974 8.39867 118.974 9.22C118.974 10.0413 118.866 10.746 118.652 11.334C118.437 11.922 118.087 12.37 117.602 12.678C117.126 12.986 116.482 13.14 115.67 13.14ZM112.806 4.11V3.564L113.828 3.116H118.756V4.11H112.806ZM117.594 3.564V1.982H118.77V3.564H117.594ZM124.507 13.126C123.751 13.126 123.144 13.028 122.687 12.832C122.239 12.636 121.912 12.3607 121.707 12.006C121.511 11.6513 121.413 11.2313 121.413 10.746C121.413 10.3167 121.473 9.976 121.595 9.724C121.725 9.46267 121.884 9.27133 122.071 9.15C122.267 9.02867 122.467 8.94933 122.673 8.912V8.856C122.486 8.8 122.29 8.70667 122.085 8.576C121.879 8.44533 121.707 8.26333 121.567 8.03C121.436 7.79667 121.371 7.50267 121.371 7.148C121.371 6.82133 121.445 6.51333 121.595 6.224C121.744 5.93467 121.987 5.69667 122.323 5.51C122.659 5.32333 123.102 5.23 123.653 5.23C123.877 5.23 124.11 5.24867 124.353 5.286C124.595 5.314 124.782 5.36533 124.913 5.44L124.689 6.406C124.586 6.36867 124.451 6.336 124.283 6.308C124.124 6.27067 123.956 6.252 123.779 6.252C123.387 6.252 123.097 6.34533 122.911 6.532C122.724 6.70933 122.631 6.94733 122.631 7.246C122.631 7.57267 122.71 7.82 122.869 7.988C123.037 8.156 123.247 8.27267 123.499 8.338C123.76 8.394 124.031 8.422 124.311 8.422H124.577V9.332H124.311C123.751 9.332 123.335 9.43467 123.065 9.64C122.803 9.836 122.673 10.1673 122.673 10.634C122.673 10.9047 122.724 11.152 122.827 11.376C122.939 11.6 123.125 11.7773 123.387 11.908C123.657 12.0387 124.031 12.104 124.507 12.104C124.983 12.104 125.351 12.0387 125.613 11.908C125.883 11.7773 126.075 11.5907 126.187 11.348C126.299 11.096 126.355 10.7973 126.355 10.452V5.328H127.601V10.368C127.601 11.348 127.349 12.0527 126.845 12.482C126.35 12.9113 125.571 13.126 124.507 13.126ZM132.763 13.14C132.017 13.14 131.429 12.9673 130.999 12.622C130.579 12.2673 130.281 11.7913 130.103 11.194C129.935 10.5967 129.851 9.93867 129.851 9.22C129.851 8.42667 129.931 7.77333 130.089 7.26C130.257 6.73733 130.491 6.32667 130.789 6.028C131.097 5.72 131.461 5.50533 131.881 5.384C132.311 5.25333 132.782 5.188 133.295 5.188C134.042 5.188 134.649 5.3 135.115 5.524C135.591 5.73867 135.941 6.04667 136.165 6.448C136.389 6.84933 136.501 7.33 136.501 7.89V13H135.269V8.002C135.269 7.42333 135.125 6.98467 134.835 6.686C134.546 6.378 134.047 6.224 133.337 6.224C132.908 6.224 132.521 6.30333 132.175 6.462C131.839 6.62067 131.573 6.91467 131.377 7.344C131.191 7.77333 131.097 8.40333 131.097 9.234C131.097 9.77533 131.149 10.2653 131.251 10.704C131.363 11.1333 131.555 11.474 131.825 11.726C132.096 11.978 132.474 12.104 132.959 12.104C133.099 12.104 133.23 12.0947 133.351 12.076C133.473 12.0573 133.589 12.0293 133.701 11.992L133.827 12.958C133.678 13.0233 133.505 13.07 133.309 13.098C133.123 13.126 132.941 13.14 132.763 13.14Z" fill="#252525"/>
<path d="M212.134 129V124.1C212.134 123.157 212.386 122.439 212.89 121.944C213.394 121.44 214.197 121.188 215.298 121.188C216.409 121.188 217.211 121.44 217.706 121.944C218.21 122.439 218.462 123.157 218.462 124.1V129H217.216V124.1C217.216 123.475 217.053 123.008 216.726 122.7C216.399 122.383 215.919 122.224 215.284 122.224C214.659 122.224 214.183 122.383 213.856 122.7C213.539 123.008 213.38 123.475 213.38 124.1V125.654L213.422 125.668C213.627 125.304 213.879 125.066 214.178 124.954C214.477 124.833 214.897 124.772 215.438 124.772H215.9V125.794H215.438C214.869 125.794 214.435 125.873 214.136 126.032C213.847 126.191 213.646 126.401 213.534 126.662C213.431 126.914 213.38 127.199 213.38 127.516V129H212.134ZM222.554 129.14C222.19 129.14 221.835 129.103 221.49 129.028C221.154 128.953 220.794 128.813 220.412 128.608L220.804 127.656C221.009 127.777 221.242 127.885 221.504 127.978C221.765 128.062 222.068 128.104 222.414 128.104C223.104 128.104 223.641 127.852 224.024 127.348C224.416 126.835 224.612 126.097 224.612 125.136C224.612 124.193 224.411 123.475 224.01 122.98C223.618 122.476 223.011 122.224 222.19 122.224C221.891 122.224 221.588 122.257 221.28 122.322C220.972 122.387 220.701 122.485 220.468 122.616V121.566C220.738 121.426 221.032 121.328 221.35 121.272C221.676 121.216 222.003 121.188 222.33 121.188C223.17 121.188 223.851 121.356 224.374 121.692C224.896 122.019 225.279 122.476 225.522 123.064C225.764 123.652 225.886 124.343 225.886 125.136C225.886 126.368 225.606 127.343 225.046 128.062C224.495 128.781 223.664 129.14 222.554 129.14ZM230.354 129V123.554C230.354 123.097 230.247 122.761 230.032 122.546C229.827 122.331 229.477 122.224 228.982 122.224C228.646 122.224 228.329 122.271 228.03 122.364C227.741 122.448 227.461 122.569 227.19 122.728V121.608C227.377 121.515 227.643 121.421 227.988 121.328C228.334 121.235 228.744 121.188 229.22 121.188C229.706 121.188 230.126 121.258 230.48 121.398C230.835 121.538 231.11 121.771 231.306 122.098C231.502 122.415 231.6 122.84 231.6 123.372V129H230.354ZM237.848 129.14C237.25 129.14 236.732 129.023 236.294 128.79C235.864 128.547 235.57 128.211 235.412 127.782H235.356L235.286 129H234.264V121.328H235.51V125.766C235.51 126.233 235.589 126.643 235.748 126.998C235.916 127.343 236.154 127.614 236.462 127.81C236.779 127.997 237.157 128.09 237.596 128.09C238.146 128.09 238.557 127.945 238.828 127.656C239.098 127.367 239.234 126.942 239.234 126.382V121.328H240.48V126.466C240.48 127.082 240.372 127.586 240.158 127.978C239.952 128.37 239.654 128.664 239.262 128.86C238.87 129.047 238.398 129.14 237.848 129.14ZM243.031 129V124.1C243.031 123.157 243.283 122.439 243.787 121.944C244.291 121.44 245.094 121.188 246.195 121.188C247.306 121.188 248.109 121.44 248.603 121.944C249.107 122.439 249.359 123.157 249.359 124.1V129H248.113V124.1C248.113 123.475 247.95 123.008 247.623 122.7C247.297 122.383 246.816 122.224 246.181 122.224C245.556 122.224 245.08 122.383 244.753 122.7C244.436 123.008 244.277 123.475 244.277 124.1V125.654L244.319 125.668C244.525 125.304 244.777 125.066 245.075 124.954C245.374 124.833 245.794 124.772 246.335 124.772H246.797V125.794H246.335C245.766 125.794 245.332 125.873 245.033 126.032C244.744 126.191 244.543 126.401 244.431 126.662C244.329 126.914 244.277 127.199 244.277 127.516V129H243.031ZM254.067 129.14C253.516 129.14 253.003 129.089 252.527 128.986C252.06 128.874 251.664 128.743 251.337 128.594L251.701 127.586C251.897 127.661 252.121 127.74 252.373 127.824C252.625 127.908 252.896 127.978 253.185 128.034C253.484 128.081 253.787 128.104 254.095 128.104C254.59 128.104 255 128.011 255.327 127.824C255.654 127.637 255.817 127.367 255.817 127.012C255.817 126.797 255.756 126.615 255.635 126.466C255.523 126.307 255.346 126.163 255.103 126.032C254.86 125.901 254.548 125.775 254.165 125.654C253.577 125.467 253.078 125.271 252.667 125.066C252.266 124.851 251.958 124.599 251.743 124.31C251.538 124.011 251.435 123.643 251.435 123.204C251.435 122.812 251.538 122.467 251.743 122.168C251.958 121.86 252.284 121.622 252.723 121.454C253.171 121.277 253.74 121.188 254.431 121.188C254.879 121.188 255.299 121.23 255.691 121.314C256.092 121.389 256.405 121.496 256.629 121.636V122.686C256.47 122.611 256.27 122.537 256.027 122.462C255.794 122.387 255.537 122.327 255.257 122.28C254.977 122.233 254.688 122.21 254.389 122.21C253.764 122.21 253.32 122.308 253.059 122.504C252.807 122.691 252.681 122.905 252.681 123.148C252.681 123.353 252.737 123.526 252.849 123.666C252.97 123.806 253.171 123.941 253.451 124.072C253.74 124.203 254.128 124.352 254.613 124.52C255.061 124.669 255.472 124.842 255.845 125.038C256.218 125.234 256.512 125.481 256.727 125.78C256.951 126.069 257.063 126.443 257.063 126.9C257.063 127.292 256.965 127.661 256.769 128.006C256.582 128.342 256.27 128.617 255.831 128.832C255.392 129.037 254.804 129.14 254.067 129.14ZM262.107 129.14C261.006 129.14 260.217 128.888 259.741 128.384C259.265 127.88 259.027 127.161 259.027 126.228V121.328H260.273V126.242C260.273 126.867 260.422 127.334 260.721 127.642C261.02 127.95 261.482 128.104 262.107 128.104C262.742 128.104 263.208 127.95 263.507 127.642C263.815 127.334 263.969 126.867 263.969 126.242V121.328H265.215V126.228C265.215 127.161 264.972 127.88 264.487 128.384C264.011 128.888 263.218 129.14 262.107 129.14Z" fill="#252525"/>
</svg>
