<svg width="267" height="224" viewBox="0 0 267 224" fill="none" xmlns="http://www.w3.org/2000/svg">
<path d="M17 51C17 45.4772 21.4772 41 27 41H100V124H17V51Z" fill="#FEB800"/>
<path d="M17 124H100V207H27C21.4772 207 17 202.523 17 197V124Z" fill="#7EB900"/>
<path d="M100 41H173C178.523 41 183 45.4772 183 51V124H100V41Z" fill="#00A3EE"/>
<path d="M100 124H183V197C183 202.523 178.523 207 173 207H100V124Z" fill="#F14F21"/>
<path d="M100 25V222" stroke="black" stroke-width="3" stroke-linecap="round"/>
<path d="M2 124L199 124" stroke="black" stroke-width="3" stroke-linecap="round"/>
<path d="M54.4495 13V8.1C54.4495 7.15733 54.7015 6.43867 55.2055 5.944C55.7095 5.44 56.5121 5.188 57.6135 5.188C58.7241 5.188 59.5268 5.44 60.0215 5.944C60.5255 6.43867 60.7775 7.15733 60.7775 8.1V13H59.5315V8.1C59.5315 7.47467 59.3681 7.008 59.0415 6.7C58.7148 6.38267 58.2341 6.224 57.5995 6.224C56.9741 6.224 56.4981 6.38267 56.1715 6.7C55.8541 7.008 55.6955 7.47467 55.6955 8.1V9.654L55.7375 9.668C55.9428 9.304 56.1948 9.066 56.4935 8.954C56.7921 8.83267 57.2121 8.772 57.7535 8.772H58.2155V9.794H57.7535C57.1841 9.794 56.7501 9.87333 56.4515 10.032C56.1621 10.1907 55.9615 10.4007 55.8495 10.662C55.7468 10.914 55.6955 11.1987 55.6955 11.516V13H54.4495ZM64.8691 13.14C64.5051 13.14 64.1504 13.1027 63.8051 13.028C63.4691 12.9533 63.1097 12.8133 62.7271 12.608L63.1191 11.656C63.3244 11.7773 63.5577 11.8847 63.8191 11.978C64.0804 12.062 64.3837 12.104 64.7291 12.104C65.4197 12.104 65.9564 11.852 66.3391 11.348C66.7311 10.8347 66.9271 10.0973 66.9271 9.136C66.9271 8.19333 66.7264 7.47467 66.3251 6.98C65.9331 6.476 65.3264 6.224 64.5051 6.224C64.2064 6.224 63.9031 6.25667 63.5951 6.322C63.2871 6.38733 63.0164 6.48533 62.7831 6.616V5.566C63.0537 5.426 63.3477 5.328 63.6651 5.272C63.9917 5.216 64.3184 5.188 64.6451 5.188C65.4851 5.188 66.1664 5.356 66.6891 5.692C67.2117 6.01867 67.5944 6.476 67.8371 7.064C68.0797 7.652 68.2011 8.34267 68.2011 9.136C68.2011 10.368 67.9211 11.3433 67.3611 12.062C66.8104 12.7807 65.9797 13.14 64.8691 13.14ZM72.6697 13V7.554C72.6697 7.09667 72.5624 6.76067 72.3477 6.546C72.1424 6.33133 71.7924 6.224 71.2977 6.224C70.9617 6.224 70.6444 6.27067 70.3457 6.364C70.0564 6.448 69.7764 6.56933 69.5057 6.728V5.608C69.6924 5.51467 69.9584 5.42133 70.3037 5.328C70.649 5.23467 71.0597 5.188 71.5357 5.188C72.021 5.188 72.441 5.258 72.7957 5.398C73.1504 5.538 73.4257 5.77133 73.6217 6.098C73.8177 6.41533 73.9157 6.84 73.9157 7.372V13H72.6697ZM80.1632 13.14C79.5659 13.14 79.0479 13.0233 78.6092 12.79C78.1799 12.5473 77.8859 12.2113 77.7272 11.782H77.6712L77.6012 13H76.5792V5.328H77.8252V9.766C77.8252 10.2327 77.9045 10.6433 78.0632 10.998C78.2312 11.3433 78.4692 11.614 78.7772 11.81C79.0945 11.9967 79.4725 12.09 79.9112 12.09C80.4619 12.09 80.8725 11.9453 81.1432 11.656C81.4139 11.3667 81.5492 10.942 81.5492 10.382V5.328H82.7952V10.466C82.7952 11.082 82.6879 11.586 82.4732 11.978C82.2679 12.37 81.9692 12.664 81.5772 12.86C81.1852 13.0467 80.7139 13.14 80.1632 13.14ZM85.4588 13V5.328H86.7048V8.646H86.7468L89.9388 5.328H91.3948V5.37L86.7048 10.116V13H85.4588ZM90.2188 13V10.298C90.2188 9.74733 90.0508 9.318 89.7148 9.01C89.3788 8.702 88.8235 8.548 88.0488 8.548L88.7768 7.638C89.3648 7.638 89.8548 7.74533 90.2468 7.96C90.6481 8.16533 90.9515 8.464 91.1568 8.856C91.3621 9.248 91.4648 9.71933 91.4648 10.27V13H90.2188ZM98.3376 13V7.89C98.3376 7.28333 98.1976 6.854 97.9176 6.602C97.6469 6.34067 97.1896 6.21 96.5456 6.21C96.0789 6.21 95.6309 6.27533 95.2016 6.406C94.7816 6.52733 94.3803 6.7 93.9976 6.924V5.762C94.2683 5.622 94.6323 5.49133 95.0896 5.37C95.5563 5.24867 96.0789 5.188 96.6576 5.188C97.1523 5.188 97.5816 5.244 97.9456 5.356C98.3096 5.45867 98.6083 5.61733 98.8416 5.832C99.0843 6.04667 99.2663 6.322 99.3876 6.658C99.5089 6.98467 99.5696 7.372 99.5696 7.82V13H98.3376ZM95.9296 13.14C95.1083 13.14 94.4783 12.9533 94.0396 12.58C93.6103 12.1973 93.3956 11.6513 93.3956 10.942C93.3956 10.1673 93.6756 9.57 94.2356 9.15C94.8049 8.73 95.7243 8.48267 96.9936 8.408L98.5896 8.31V9.346L97.1616 9.444C96.2096 9.50933 95.5516 9.65867 95.1876 9.892C94.8329 10.1253 94.6556 10.466 94.6556 10.914C94.6556 11.334 94.7863 11.642 95.0476 11.838C95.3183 12.034 95.6916 12.132 96.1676 12.132C96.3263 12.132 96.4709 12.1227 96.6016 12.104C96.7323 12.076 96.8583 12.0433 96.9796 12.006L97.1756 12.944C96.9983 13.0093 96.8023 13.056 96.5876 13.084C96.3823 13.1213 96.1629 13.14 95.9296 13.14ZM104.292 13V7.554C104.292 7.09667 104.184 6.76067 103.97 6.546C103.764 6.33133 103.414 6.224 102.92 6.224C102.584 6.224 102.266 6.27067 101.968 6.364C101.678 6.448 101.398 6.56933 101.128 6.728V5.608C101.314 5.51467 101.58 5.42133 101.926 5.328C102.271 5.23467 102.682 5.188 103.158 5.188C103.643 5.188 104.063 5.258 104.418 5.398C104.772 5.538 105.048 5.77133 105.244 6.098C105.44 6.41533 105.538 6.84 105.538 7.372V13H104.292ZM108.019 13V10.34C108.019 9.752 108.15 9.32733 108.411 9.066C108.672 8.79533 109.004 8.60867 109.405 8.506L109.419 8.464L107.879 7.876V7.414C107.879 7.03133 108.005 6.672 108.257 6.336C108.509 5.99067 108.868 5.71533 109.335 5.51C109.811 5.29533 110.376 5.188 111.029 5.188C111.598 5.188 112.126 5.28133 112.611 5.468C113.096 5.64533 113.484 5.93 113.773 6.322C114.072 6.70467 114.221 7.20867 114.221 7.834V13H112.975V7.96C112.975 7.33467 112.784 6.89133 112.401 6.63C112.028 6.35933 111.566 6.224 111.015 6.224C110.446 6.224 109.993 6.34533 109.657 6.588C109.321 6.82133 109.153 7.12 109.153 7.484L110.665 8.24L110.553 8.912C110.208 8.912 109.904 9.02867 109.643 9.262C109.391 9.486 109.265 9.84533 109.265 10.34V13H108.019ZM116.876 13V5.328H118.122V8.646H118.164L121.356 5.328H122.812V5.37L118.122 10.116V13H116.876ZM121.636 13V10.298C121.636 9.74733 121.468 9.318 121.132 9.01C120.796 8.702 120.24 8.548 119.466 8.548L120.194 7.638C120.782 7.638 121.272 7.74533 121.664 7.96C122.065 8.16533 122.368 8.464 122.574 8.856C122.779 9.248 122.882 9.71933 122.882 10.27V13H121.636ZM129.754 13V7.89C129.754 7.28333 129.614 6.854 129.334 6.602C129.064 6.34067 128.606 6.21 127.962 6.21C127.496 6.21 127.048 6.27533 126.618 6.406C126.198 6.52733 125.797 6.7 125.414 6.924V5.762C125.685 5.622 126.049 5.49133 126.506 5.37C126.973 5.24867 127.496 5.188 128.074 5.188C128.569 5.188 128.998 5.244 129.362 5.356C129.726 5.45867 130.025 5.61733 130.258 5.832C130.501 6.04667 130.683 6.322 130.804 6.658C130.926 6.98467 130.986 7.372 130.986 7.82V13H129.754ZM127.346 13.14C126.525 13.14 125.895 12.9533 125.456 12.58C125.027 12.1973 124.812 11.6513 124.812 10.942C124.812 10.1673 125.092 9.57 125.652 9.15C126.222 8.73 127.141 8.48267 128.41 8.408L130.006 8.31V9.346L128.578 9.444C127.626 9.50933 126.968 9.65867 126.604 9.892C126.25 10.1253 126.072 10.466 126.072 10.914C126.072 11.334 126.203 11.642 126.464 11.838C126.735 12.034 127.108 12.132 127.584 12.132C127.743 12.132 127.888 12.1227 128.018 12.104C128.149 12.076 128.275 12.0433 128.396 12.006L128.592 12.944C128.415 13.0093 128.219 13.056 128.004 13.084C127.799 13.1213 127.58 13.14 127.346 13.14ZM135.709 13V7.554C135.709 7.09667 135.601 6.76067 135.387 6.546C135.181 6.33133 134.831 6.224 134.337 6.224C134.001 6.224 133.683 6.27067 133.385 6.364C133.095 6.448 132.815 6.56933 132.545 6.728V5.608C132.731 5.51467 132.997 5.42133 133.343 5.328C133.688 5.23467 134.099 5.188 134.575 5.188C135.06 5.188 135.48 5.258 135.835 5.398C136.189 5.538 136.465 5.77133 136.661 6.098C136.857 6.41533 136.955 6.84 136.955 7.372V13H135.709ZM142.46 13.126C141.704 13.126 141.097 13.028 140.64 12.832C140.192 12.636 139.865 12.3607 139.66 12.006C139.464 11.6513 139.366 11.2313 139.366 10.746C139.366 10.3167 139.427 9.976 139.548 9.724C139.679 9.46267 139.837 9.27133 140.024 9.15C140.22 9.02867 140.421 8.94933 140.626 8.912V8.856C140.439 8.8 140.243 8.70667 140.038 8.576C139.833 8.44533 139.66 8.26333 139.52 8.03C139.389 7.79667 139.324 7.50267 139.324 7.148C139.324 6.82133 139.399 6.51333 139.548 6.224C139.697 5.93467 139.94 5.69667 140.276 5.51C140.612 5.32333 141.055 5.23 141.606 5.23C141.83 5.23 142.063 5.24867 142.306 5.286C142.549 5.314 142.735 5.36533 142.866 5.44L142.642 6.406C142.539 6.36867 142.404 6.336 142.236 6.308C142.077 6.27067 141.909 6.252 141.732 6.252C141.34 6.252 141.051 6.34533 140.864 6.532C140.677 6.70933 140.584 6.94733 140.584 7.246C140.584 7.57267 140.663 7.82 140.822 7.988C140.99 8.156 141.2 8.27267 141.452 8.338C141.713 8.394 141.984 8.422 142.264 8.422H142.53V9.332H142.264C141.704 9.332 141.289 9.43467 141.018 9.64C140.757 9.836 140.626 10.1673 140.626 10.634C140.626 10.9047 140.677 11.152 140.78 11.376C140.892 11.6 141.079 11.7773 141.34 11.908C141.611 12.0387 141.984 12.104 142.46 12.104C142.936 12.104 143.305 12.0387 143.566 11.908C143.837 11.7773 144.028 11.5907 144.14 11.348C144.252 11.096 144.308 10.7973 144.308 10.452V5.328H145.554V10.368C145.554 11.348 145.302 12.0527 144.798 12.482C144.303 12.9113 143.524 13.126 142.46 13.126Z" fill="#252525"/>
<path d="M212.134 129V124.1C212.134 123.157 212.386 122.439 212.89 121.944C213.394 121.44 214.197 121.188 215.298 121.188C216.409 121.188 217.211 121.44 217.706 121.944C218.21 122.439 218.462 123.157 218.462 124.1V129H217.216V124.1C217.216 123.475 217.053 123.008 216.726 122.7C216.399 122.383 215.919 122.224 215.284 122.224C214.659 122.224 214.183 122.383 213.856 122.7C213.539 123.008 213.38 123.475 213.38 124.1V125.654L213.422 125.668C213.627 125.304 213.879 125.066 214.178 124.954C214.477 124.833 214.897 124.772 215.438 124.772H215.9V125.794H215.438C214.869 125.794 214.435 125.873 214.136 126.032C213.847 126.191 213.646 126.401 213.534 126.662C213.431 126.914 213.38 127.199 213.38 127.516V129H212.134ZM222.554 129.14C222.19 129.14 221.835 129.103 221.49 129.028C221.154 128.953 220.794 128.813 220.412 128.608L220.804 127.656C221.009 127.777 221.242 127.885 221.504 127.978C221.765 128.062 222.068 128.104 222.414 128.104C223.104 128.104 223.641 127.852 224.024 127.348C224.416 126.835 224.612 126.097 224.612 125.136C224.612 124.193 224.411 123.475 224.01 122.98C223.618 122.476 223.011 122.224 222.19 122.224C221.891 122.224 221.588 122.257 221.28 122.322C220.972 122.387 220.701 122.485 220.468 122.616V121.566C220.738 121.426 221.032 121.328 221.35 121.272C221.676 121.216 222.003 121.188 222.33 121.188C223.17 121.188 223.851 121.356 224.374 121.692C224.896 122.019 225.279 122.476 225.522 123.064C225.764 123.652 225.886 124.343 225.886 125.136C225.886 126.368 225.606 127.343 225.046 128.062C224.495 128.781 223.664 129.14 222.554 129.14ZM230.354 129V123.554C230.354 123.097 230.247 122.761 230.032 122.546C229.827 122.331 229.477 122.224 228.982 122.224C228.646 122.224 228.329 122.271 228.03 122.364C227.741 122.448 227.461 122.569 227.19 122.728V121.608C227.377 121.515 227.643 121.421 227.988 121.328C228.334 121.235 228.744 121.188 229.22 121.188C229.706 121.188 230.126 121.258 230.48 121.398C230.835 121.538 231.11 121.771 231.306 122.098C231.502 122.415 231.6 122.84 231.6 123.372V129H230.354ZM237.848 129.14C237.25 129.14 236.732 129.023 236.294 128.79C235.864 128.547 235.57 128.211 235.412 127.782H235.356L235.286 129H234.264V121.328H235.51V125.766C235.51 126.233 235.589 126.643 235.748 126.998C235.916 127.343 236.154 127.614 236.462 127.81C236.779 127.997 237.157 128.09 237.596 128.09C238.146 128.09 238.557 127.945 238.828 127.656C239.098 127.367 239.234 126.942 239.234 126.382V121.328H240.48V126.466C240.48 127.082 240.372 127.586 240.158 127.978C239.952 128.37 239.654 128.664 239.262 128.86C238.87 129.047 238.398 129.14 237.848 129.14ZM245.985 129.126C245.229 129.126 244.623 129.028 244.165 128.832C243.717 128.636 243.391 128.361 243.185 128.006C242.989 127.651 242.891 127.231 242.891 126.746C242.891 126.317 242.952 125.976 243.073 125.724C243.204 125.463 243.363 125.271 243.549 125.15C243.745 125.029 243.946 124.949 244.151 124.912V124.856C243.965 124.8 243.769 124.707 243.563 124.576C243.358 124.445 243.185 124.263 243.045 124.03C242.915 123.797 242.849 123.503 242.849 123.148C242.849 122.821 242.924 122.513 243.073 122.224C243.223 121.935 243.465 121.697 243.801 121.51C244.137 121.323 244.581 121.23 245.131 121.23C245.355 121.23 245.589 121.249 245.831 121.286C246.074 121.314 246.261 121.365 246.391 121.44L246.167 122.406C246.065 122.369 245.929 122.336 245.761 122.308C245.603 122.271 245.435 122.252 245.257 122.252C244.865 122.252 244.576 122.345 244.389 122.532C244.203 122.709 244.109 122.947 244.109 123.246C244.109 123.573 244.189 123.82 244.347 123.988C244.515 124.156 244.725 124.273 244.977 124.338C245.239 124.394 245.509 124.422 245.789 124.422H246.055V125.332H245.789C245.229 125.332 244.814 125.435 244.543 125.64C244.282 125.836 244.151 126.167 244.151 126.634C244.151 126.905 244.203 127.152 244.305 127.376C244.417 127.6 244.604 127.777 244.865 127.908C245.136 128.039 245.509 128.104 245.985 128.104C246.461 128.104 246.83 128.039 247.091 127.908C247.362 127.777 247.553 127.591 247.665 127.348C247.777 127.096 247.833 126.797 247.833 126.452V121.328H249.079V126.368C249.079 127.348 248.827 128.053 248.323 128.482C247.829 128.911 247.049 129.126 245.985 129.126ZM253.794 129V123.554C253.794 123.097 253.687 122.761 253.472 122.546C253.267 122.331 252.917 122.224 252.422 122.224C252.086 122.224 251.769 122.271 251.47 122.364C251.181 122.448 250.901 122.569 250.63 122.728V121.608C250.817 121.515 251.083 121.421 251.428 121.328C251.773 121.235 252.184 121.188 252.66 121.188C253.145 121.188 253.565 121.258 253.92 121.398C254.275 121.538 254.55 121.771 254.746 122.098C254.942 122.415 255.04 122.84 255.04 123.372V129H253.794ZM257.521 129V126.34C257.521 125.752 257.652 125.327 257.913 125.066C258.175 124.795 258.506 124.609 258.907 124.506L258.921 124.464L257.381 123.876V123.414C257.381 123.031 257.507 122.672 257.759 122.336C258.011 121.991 258.371 121.715 258.837 121.51C259.313 121.295 259.878 121.188 260.531 121.188C261.101 121.188 261.628 121.281 262.113 121.468C262.599 121.645 262.986 121.93 263.275 122.322C263.574 122.705 263.723 123.209 263.723 123.834V129H262.477V123.96C262.477 123.335 262.286 122.891 261.903 122.63C261.53 122.359 261.068 122.224 260.517 122.224C259.948 122.224 259.495 122.345 259.159 122.588C258.823 122.821 258.655 123.12 258.655 123.484L260.167 124.24L260.055 124.912C259.71 124.912 259.407 125.029 259.145 125.262C258.893 125.486 258.767 125.845 258.767 126.34V129H257.521Z" fill="#252525"/>
</svg>
